<?xml version="1.0" encoding="UTF-8"?>
<svg width="424px" height="592px" viewBox="0 0 424 592" version="1.1" xmlns="http://www.w3.org/2000/svg" xmlns:xlink="http://www.w3.org/1999/xlink">
    <!-- Generator: Sketch 50.2 (55047) - http://www.bohemiancoding.com/sketch -->
    <title>FileIcons</title>
    <desc>Created with Sketch.</desc>
    <defs></defs>
    <g id="Page-1" stroke="none" stroke-width="1" fill="none" fill-rule="evenodd">
        <g id="FileIcons">
            <g id="FileIcons_3_">
                <g id="Page-1_2_">
                    <g id="FileIcons_2_">
                        <g id="Page-1_1_">
                            <g id="FileIcons_1_">
                                <g id="Page-1">
                                    <g id="FileIcons">
                                        <g id="if_pdfs_774684">
                                            <path d="M20.8,7.6 L20.8,25.4 C20.8,26.6 19.9,27.5 18.7,27.5 L2.6,27.5 C1.4,27.5 0.5,26.6 0.5,25.4 L0.5,2.6 C0.5,2 0.7,1.5 1.1,1.1 C1.5,0.7 2,0.5 2.6,0.5 L13.8,0.5 L20.8,7.6 Z" id="Shape" stroke="#EE3B28" stroke-linejoin="round"></path>
                                            <path d="M10.7,9.9 C11,10 10.9,10.2 10.8,11 C10.6,12.3 10.3,13.6 9.8,14.8 C9.2,16.2 8.5,17.6 7.6,18.9 C7.1,19.7 6.4,20.4 5.8,21.1 C5.5,21.4 5.2,21.6 4.8,21.7 C4.6,21.7 4.5,21.7 4.4,21.6 C4.3,21.4 4.3,21.2 4.4,21.1 C4.5,20.8 4.7,20.5 4.9,20.3 C5.4,19.8 6,19.5 6.6,19.2 C7.4,18.8 8.3,18.5 9.1,18.3 C9.8,18.1 10.4,18 11.1,17.8 C11.6,17.7 12.1,17.6 12.6,17.6 C13,17.6 13.5,17.6 13.9,17.6 C14.3,17.6 14.7,17.7 15.1,17.8 C15.5,17.9 15.8,18 16.1,18.2 C16.4,18.4 16.6,18.6 16.7,18.9 C16.8,19.1 16.8,19.4 16.7,19.7 C16.6,19.9 16.4,20.1 16.2,20.1 C15.9,20.2 15.7,20.2 15.4,20.1 C15,20 14.7,19.8 14.4,19.5 C13.9,19.2 13.5,18.8 13.1,18.4 C12.5,17.8 12,17.1 11.5,16.5 C11,15.9 10.6,15.3 10.2,14.6 C10,14.1 9.8,13.6 9.6,13.1 C9.5,12.7 9.4,12.2 9.3,11.8 C9.3,11.5 9.3,11.1 9.3,10.8 C9.3,10.6 9.4,10.3 9.5,10.1 C9.7,10 9.9,9.9 10,9.9 C10.1,9.9 10.1,9.9 10.2,9.9 C10.3,9.9 10.3,9.9 10.4,9.9 L10.7,10.1" id="Shape_1_" stroke="#EE3B28" stroke-linejoin="round"></path>
                                            <path d="M20.8,7.1 L20.8,8 L15.2,8 C14,8 13.5,7 13.5,5.8 L13.5,0.6 L14.3,0.6 L20.8,7.1 Z" id="Shape-2" fill="#EE3B28" fill-rule="nonzero"></path>
                                        </g>
                                        <g id="if_pdfs_774684-2" transform="translate(40.000000, 0.000000)" fill-rule="nonzero">
                                            <path d="M21,7.7 L21,25.5 C21,26.1 20.8,26.6 20.4,27 C20,27.4 19.5,27.6 18.9,27.6 L2.8,27.6 C2.2,27.6 1.7,27.4 1.3,27 C0.9,26.6 0.7,26.1 0.7,25.5 L0.7,2.7 C0.7,2.1 0.9,1.6 1.3,1.2 C1.7,0.8 2.2,0.6 2.8,0.6 L14,0.6 L21,7.7 Z" id="Shape-3" stroke="#067FCB" fill-opacity="0.7" fill="#FFFFFF"></path>
                                            <path d="M21,7.2 L21,8.1 L15.5,8.1 C14.4,8.1 13.8,7.1 13.8,5.9 L13.8,0.6 L14.6,0.6 L21,7.2 Z" id="Shape-4" fill="#067FCB"></path>
                                        </g>
                                        <g id="W_1_" transform="translate(44.000000, 7.000000)" fill="#067FCB" font-family="Helvetica" font-size="13.52" font-weight="normal">
                                            <g id="Group">
                                                <text id="W">
                                                    <tspan x="0.3" y="13.94">W</tspan>
                                                </text>
                                            </g>
                                        </g>
                                        <g id="if_pdfs_774684-3" transform="translate(160.000000, 0.000000)" fill-rule="nonzero">
                                            <path d="M21,7.6 L21,25.4 C21,26.6 20,27.5 18.9,27.5 L2.9,27.5 C1.7,27.5 0.8,26.5 0.8,25.4 L0.8,2.7 C0.8,1.6 1.7,0.6 2.8,0.6 L14,0.6 L21,7.6 Z" id="Shape-5" stroke="#34494F" fill-opacity="0.7" fill="#FFFFFF"></path>
                                            <path d="M21,7.2 L21,8 L15.4,8 C14.2,8 13.7,7 13.7,5.8 L13.7,0.6 L14.6,0.6 L21,7.2 Z" id="Shape-6" fill="#34494F"></path>
                                        </g>
                                        <g id="W-2" transform="translate(165.000000, 7.000000)" fill="#34494F" font-family="Helvetica" font-size="13.2" font-weight="normal">
                                            <g id="X">
                                                <text>
                                                    <tspan x="0.57" y="13.89">X</tspan>
                                                </text>
                                            </g>
                                        </g>
                                        <g id="if_pdfs_774684-5" transform="translate(120.000000, 0.000000)" fill="#FFFFFF" fill-opacity="0.7" fill-rule="nonzero" stroke="#EDEDED">
                                            <path d="M21.1,7.7 L21.1,25.5 C21.1,26.7 20.2,27.6 19,27.6 L2.9,27.6 C1.7,27.6 0.8,26.6 0.8,25.5 L0.8,2.7 C0.8,1.5 1.7,0.6 2.9,0.6 L14.1,0.6 L21.1,7.7 Z" id="Shape-9"></path>
                                        </g>
                                        <path d="M130.7,0.9 L130.7,16.8 C130.7,17.1 130.6,17.3 130.3,17.3 C130,17.3 129.8,17.2 129.7,16.9 C129.7,16.8 129.7,16.8 129.7,16.7 L129.7,0.9 C129.7,0.6 129.8,0.4 130.1,0.3 C130.2,0.3 130.4,0.3 130.5,0.4 C130.6,0.5 130.7,0.6 130.7,0.7 C130.7,0.8 130.7,0.9 130.7,0.9 Z" id="Rectangle" fill="#192257" fill-rule="nonzero"></path>
                                        <path d="M132.5,9.4 C132.5,9.5 132.5,9.6 132.4,9.7 C132.3,9.8 132.2,9.8 132.1,9.8 L130.2,9.8 C129.9,9.8 129.8,9.5 129.8,9.2 C129.8,9 130,8.8 130.2,8.8 L132.1,8.8 C132.3,8.9 132.5,9.1 132.5,9.4 C132.5,9.3 132.5,9.3 132.5,9.4 Z" id="Rectangle-2-Copy-2" fill="#192257" fill-rule="nonzero"></path>
                                        <path d="M132.5,12.2 C132.5,12.3 132.5,12.4 132.4,12.5 C132.3,12.6 132.2,12.6 132.1,12.6 L130.2,12.6 C130,12.6 129.8,12.4 129.8,12.1 C129.8,11.8 130,11.7 130.2,11.6 L132.1,11.6 C132.2,11.6 132.3,11.6 132.4,11.7 C132.5,11.9 132.5,12 132.5,12.2 C132.5,12.1 132.5,12.1 132.5,12.2 Z" id="Rectangle-2-Copy-3" fill="#192257" fill-rule="nonzero"></path>
                                        <path d="M132.5,15 C132.5,15.1 132.5,15.2 132.4,15.3 C132.3,15.4 132.2,15.4 132.1,15.4 L130.2,15.4 C130,15.4 129.8,15.2 129.8,14.9 C129.8,14.6 130,14.5 130.2,14.4 L132.1,14.4 C132.2,14.4 132.3,14.4 132.4,14.5 C132.5,14.7 132.5,14.8 132.5,15 C132.5,14.9 132.5,15 132.5,15 Z" id="Rectangle-2-Copy-4" fill="#192257" fill-rule="nonzero"></path>
                                        <path d="M130.7,8.4 C130.7,8.5 130.7,8.6 130.6,8.7 C130.5,8.8 130.4,8.8 130.3,8.8 L128.4,8.8 C128.2,8.8 128,8.6 128,8.3 C128,8 128.2,7.9 128.4,7.8 L130.3,7.8 C130.4,7.8 130.5,7.8 130.6,7.9 C130.6,8.1 130.6,8.2 130.7,8.4 Z" id="Rectangle-2-Copy-2-3" fill="#192257" fill-rule="nonzero"></path>
                                        <path d="M130.7,11.2 C130.7,11.4 130.5,11.7 130.3,11.7 L128.4,11.7 C128.1,11.7 128,11.4 128,11.1 C128,10.9 128.2,10.7 128.4,10.7 L130.3,10.7 C130.4,10.7 130.6,10.9 130.7,11.2 Z" id="Rectangle-2-Copy-3-2" fill="#192257" fill-rule="nonzero"></path>
                                        <path d="M130.7,14 C130.7,14.2 130.5,14.5 130.3,14.5 L128.4,14.5 C128.1,14.5 128,14.2 128,14 C128,13.8 128.2,13.6 128.4,13.6 L130.3,13.6 C130.4,13.5 130.6,13.7 130.7,14 Z" id="Rectangle-2-Copy-4-2" fill="#192257" fill-rule="nonzero"></path>
                                        <rect id="Rectangle-3" fill="#192257" fill-rule="nonzero" x="129.2" y="16.9" width="1.9" height="1.9"></rect>
                                        <g id="if_pdfs_774684-4" transform="translate(200.000000, 0.000000)" fill-rule="nonzero">
                                            <path d="M21,7.6 L21,25.4 C21,26.5 20,27.5 18.9,27.5 L2.8,27.5 C1.6,27.5 0.7,26.5 0.7,25.4 L0.7,2.7 C0.7,2.1 0.9,1.6 1.3,1.2 C1.7,0.8 2.2,0.6 2.8,0.6 L14,0.6 L21,7.6 Z" id="Shape-7" stroke="#06CBBE" fill-opacity="0.7" fill="#FFFFFF"></path>
                                            <path d="M21,7.2 L21,8 L15.5,8 C14.3,8 13.8,7 13.8,5.8 L13.8,0.6 L14.7,0.6 L21,7.2 Z" id="Shape-8" fill="#06CBBE"></path>
                                        </g>
                                        <rect id="Rectangle-4" stroke="#06CBBE" stroke-linecap="round" stroke-linejoin="round" x="204.9" y="10.2" width="11.9" height="8.2"></rect>
                                        <circle id="Oval" stroke="#06CBBE" stroke-linecap="round" stroke-linejoin="round" cx="208.3" cy="14.4" r="1.4"></circle>
                                        <path d="M210.2,18.5 L206.5,22.2" id="Line" stroke="#06CBBE" stroke-linecap="round" stroke-linejoin="round"></path>
                                        <path d="M211.3,18.5 L215,22.2" id="Line-2" stroke="#06CBBE" stroke-linecap="round" stroke-linejoin="round"></path>
                                        <path d="M204,10.2 L217.7,10.2" id="Line-3" stroke="#06CBBE" stroke-linecap="round" stroke-linejoin="round"></path>
                                        <path d="M204,18.5 L217.7,18.5" id="Line-3-2" stroke="#06CBBE" stroke-linecap="round" stroke-linejoin="round"></path>
                                        <path d="M212.1,13.3 L214.8,13.3" id="Line-2-2" stroke="#06CBBE" stroke-linecap="round" stroke-linejoin="round"></path>
                                        <path d="M212.1,15.1 L213.9,15.1" id="Line-Copy" stroke="#06CBBE" stroke-linecap="round" stroke-linejoin="round"></path>
                                        <g id="if_pdfs_774684-6" transform="translate(240.000000, 0.000000)" fill-rule="nonzero">
                                            <path d="M21,7.6 L21,25.4 C21,26.5 20,27.5 18.9,27.5 L2.8,27.5 C1.6,27.5 0.7,26.5 0.7,25.4 L0.7,2.7 C0.7,2.1 0.9,1.6 1.3,1.2 C1.7,0.8 2.2,0.6 2.8,0.6 L14,0.6 L21,7.6 Z" id="Shape-10" stroke="#4CB9E1" fill-opacity="0.7" fill="#FFFFFF"></path>
                                            <path d="M21,7.2 L21,8 L15.4,8 C14.3,8 13.7,7 13.7,5.8 L13.7,0.6 L14.5,0.6 L21,7.2 Z" id="Shape-11" fill="#4CB9E1"></path>
                                        </g>
                                        <path d="M246.1,18.6 L255.5,18.6 C255.9,18.6 256.2,18.3 256.2,17.9 C256.2,17.8 256.2,17.7 256.1,17.5 C255.2,15.9 254.1,14.3 252.9,12.9 C252.8,12.8 252.6,12.8 252.5,12.9 C251.5,13.6 250.6,14.4 249.9,15.3 C249.7,15.6 249.2,15.7 248.9,15.4 C248.5,15.1 248.1,14.9 247.6,14.8 C247,14.8 246.3,16 245.5,17.4 C245.3,17.8 245.5,18.2 245.9,18.4 C245.9,18.5 246,18.5 246.1,18.6 Z" id="Shape_2_" stroke="#4CB9E1" stroke-width="0.75" stroke-linecap="round"></path>
                                        <circle id="Oval_1_" stroke="#4CB9E1" stroke-width="0.75" stroke-linecap="round" cx="247" cy="11.3" r="1.9"></circle>
                                        <g id="if_pdfs_774684-7" transform="translate(283.000000, 0.000000)" fill-rule="nonzero">
                                            <path d="M21.1,7.7 L21.1,25.4 C21.1,26.6 20.2,27.5 19,27.5 L3,27.5 C1.8,27.5 0.9,26.5 0.9,25.4 L0.9,2.7 C0.9,2.1 1.1,1.6 1.5,1.2 C1.9,0.8 2.4,0.5 3,0.5 L14.2,0.5 L21.1,7.7 Z" id="Shape-12" stroke="#906FD4" fill-opacity="0.7" fill="#FFFFFF"></path>
                                            <path d="M21.1,7.2 L21.1,8.1 L15.5,8.1 C14.4,8.1 13.8,7.1 13.8,5.9 L13.8,0.5 L14.6,0.5 L21.1,7.2 Z" id="Shape-13" fill="#906FD4"></path>
                                        </g>
                                        <g id="GIF_1_" transform="translate(287.000000, 10.000000)" fill="#906FD4" font-family="Helvetica" font-size="7.92" font-weight="normal">
                                            <g id="Group_1_">
                                                <text id="GIF">
                                                    <tspan x="0.41" y="8.28">GIF</tspan>
                                                </text>
                                            </g>
                                        </g>
                                        <g id="if_pdfs_774684-8" transform="translate(323.000000, 0.000000)" fill-rule="nonzero">
                                            <path d="M21.1,7.7 L21.1,25.4 C21.1,26.6 20.2,27.5 19,27.5 L2.9,27.5 C2.3,27.5 1.8,27.3 1.4,26.9 C1,26.6 0.8,26 0.8,25.5 L0.8,2.7 C0.8,2.1 1,1.6 1.4,1.2 C1.8,0.8 2.3,0.6 2.9,0.6 L14.1,0.6 L21.1,7.7 Z" id="Shape-14" stroke="#FF8C3E" fill-opacity="0.7" fill="#FFFFFF"></path>
                                            <path d="M21.1,7.2 L21.1,8.1 L15.5,8.1 C14.3,8.1 13.8,7.1 13.8,5.9 L13.8,0.6 L14.6,0.6 L21.1,7.2 Z" id="Shape-15" fill="#FF8C3E"></path>
                                        </g>
                                        <g id="if_pdfs_774684-9" transform="translate(79.000000, 0.000000)" fill-rule="nonzero">
                                            <path d="M21,7.6 L21,25.4 C21,26.5 20.1,27.5 19,27.5 L2.8,27.5 C1.6,27.5 0.7,26.5 0.7,25.4 L0.7,2.6 C0.7,2 0.9,1.5 1.3,1.1 C1.7,0.7 2.2,0.5 2.8,0.5 L14,0.5 L21,7.6 Z" id="Shape-16" stroke="#FF488A" fill-opacity="0.7" fill="#FFFFFF"></path>
                                            <path d="M21,7.1 L21,8 L15.5,8 C14.4,8 13.8,7 13.8,5.8 L13.8,0.6 L14.7,0.6 L21,7.1 Z" id="Shape-17" fill="#FF488A"></path>
                                        </g>
                                        <g id="if_pdfs_774684-10" transform="translate(363.000000, 0.000000)" fill-rule="nonzero">
                                            <path d="M20.8,7.7 L20.8,25.4 C20.8,26.6 19.9,27.5 18.7,27.5 L2.6,27.5 C1.4,27.5 0.5,26.5 0.5,25.4 L0.5,2.7 C0.5,2.1 0.7,1.6 1.1,1.2 C1.5,0.8 2,0.5 2.6,0.5 L13.8,0.5 L20.8,7.7 Z" id="Shape-18" stroke="#DBDBDB" fill-opacity="0.7" fill="#FFFFFF"></path>
                                            <path d="M20.8,7.2 L20.8,8.1 L15.2,8.1 C14.1,8.1 13.5,7.1 13.5,5.9 L13.5,0.5 L14.3,0.5 L20.8,7.2 Z" id="Shape-19" fill="#DBDBDB"></path>
                                        </g>
                                        <g id="if_pdfs_774684-11" transform="translate(403.000000, 0.000000)">
                                            <path d="M20.4,7.7 L20.4,25.4 C20.4,26.6 19.5,27.5 18.3,27.5 L2.2,27.5 C1,27.5 0.1,26.5 0.1,25.4 L0.1,2.7 C0.1,2.1 0.3,1.6 0.7,1.2 C1.1,0.8 1.6,0.6 2.2,0.6 L13.4,0.6 L20.4,7.7 Z" id="Shape-20" stroke="#636D72"></path>
                                            <path d="M20.4,7.2 L20.4,8.1 L14.8,8.1 C13.7,8.1 13.1,7.1 13.1,5.9 L13.1,0.5 L14,0.5 L20.4,7.2 Z" id="Shape-21" fill="#636D72" fill-rule="nonzero"></path>
                                        </g>
                                        <g id="GIF-2" transform="translate(326.000000, 10.000000)" fill="#FF8C3E" font-family="Helvetica" font-size="7.92" font-weight="normal">
                                            <g id="_x3C__1_">
                                                <text id="&lt;">
                                                    <tspan x="0.94" y="8.28">&lt;</tspan>
                                                </text>
                                            </g>
                                        </g>
                                        <g id="GIF-3" transform="translate(334.000000, 10.000000)" fill="#FF8C3E" font-family="Helvetica" font-size="7.92" font-weight="normal">
                                            <g id="_x3C__3_" transform="translate(3.961000, 5.500000) scale(-1, 1) translate(-3.961000, -5.500000) translate(0.961000, 0.000000)">
                                                <text id="&lt;">
                                                    <tspan x="0.4805" y="8.28">&lt;</tspan>
                                                </text>
                                            </g>
                                        </g>
                                        <g id="GIF-4" transform="translate(333.000000, 9.000000)" fill="#FF8C3E" font-family="Helvetica" font-size="9.24" font-weight="normal">
                                            <g id="_x5C__1_" transform="translate(2.160200, 6.000000) scale(-1, 1) translate(-2.160200, -6.000000) translate(0.160200, 0.000000)">
                                                <text id="\">
                                                    <tspan x="0.5801" y="9.79">\</tspan>
                                                </text>
                                            </g>
                                        </g>
                                        <path d="M93.6,10.6 C93.6,10.6 93.6,10.5 93.5,10.5 L87.5,11.3 C87.4,11.3 87.3,11.4 87.3,11.5 L87.3,18.5 C86.9,18 86.4,17.8 85.8,17.8 C84.9,17.9 84.1,18.7 84.2,19.7 C84.3,20.7 85.1,21.4 86,21.4 C87,21.4 87.7,20.6 87.7,19.6 L87.7,13.7 L93.4,12.9 L93.4,16.5 C93,16.1 92.4,15.8 91.9,15.8 C91,15.9 90.2,16.7 90.3,17.7 C90.4,18.6 91.2,19.4 92.1,19.4 C93,19.4 93.8,18.6 93.8,17.7 L93.6,10.6" id="Fill-1" fill="#FF488A" fill-rule="nonzero"></path>
                                        <g id="if_pdfs_774684-12" transform="translate(120.000000, 0.000000)" stroke="#192257">
                                            <path d="M21.1,7.7 L21.1,25.5 C21.1,26.7 20.2,27.6 19,27.6 L2.9,27.6 C1.7,27.6 0.8,26.6 0.8,25.5 L0.8,2.7 C0.8,1.5 1.7,0.6 2.9,0.6 L14.1,0.6 L21.1,7.7 Z" id="Shape-22"></path>
                                        </g>
                                        <path d="M130.7,2.8 C130.7,2.9 130.7,3 130.6,3.1 C130.5,3.2 130.4,3.2 130.3,3.2 L128.4,3.2 C128.3,3.2 128.2,3.2 128.1,3.1 C128,3 128,2.9 128,2.8 C128,2.7 128,2.6 128.1,2.5 C128.2,2.4 128.3,2.4 128.4,2.3 L130.3,2.3 C130.4,2.4 130.6,2.6 130.7,2.8 Z" id="Rectangle-2" fill="#192257" fill-rule="nonzero"></path>
                                        <path d="M132.5,3.8 C132.5,3.9 132.5,4 132.4,4.1 C132.3,4.2 132.2,4.2 132.1,4.2 L130.1,4.2 C129.9,4.2 129.7,4 129.6,3.8 C129.6,3.6 129.8,3.4 130,3.3 L131.9,3.3 C132,3.3 132.1,3.3 132.2,3.4 C132.5,3.5 132.5,3.6 132.5,3.8 Z" id="Rectangle-2-2" fill="#192257" fill-rule="nonzero"></path>
                                        <path d="M132.5,6.5 C132.5,6.6 132.5,6.7 132.4,6.8 C132.3,7 132.2,7 132.1,7 L130.2,7 C129.9,7 129.8,6.7 129.8,6.4 C129.8,6.2 130,6 130.2,6 L132.1,6 C132.3,6.1 132.5,6.2 132.5,6.5 Z" id="Rectangle-2-Copy" fill="#192257" fill-rule="nonzero"></path>
                                        <path d="M130.7,5.6 C130.7,5.7 130.7,5.8 130.6,5.9 C130.5,6 130.4,6 130.3,6 L128.4,6 C128.3,6 128.2,6 128.1,5.9 C128,5.8 128,5.7 128,5.6 C128,5.5 128,5.4 128.1,5.3 C128.2,5.2 128.3,5.2 128.4,5.1 C128.4,5.1 128.4,5.1 128.5,5.1 L130.4,5.1 C130.5,5.1 130.6,5.1 130.7,5.2 C130.6,5.3 130.7,5.5 130.7,5.6 Z" id="Rectangle-2-Copy-2-2" fill="#192257" fill-rule="nonzero"></path>
                                    </g>
                                </g>
                                <g id="surface1" transform="translate(0.000000, 48.000000)" fill="#E64A19" fill-rule="nonzero">
                                    <polygon id="Shape_3_" points="0 7.7 20.7 0.2 32 3 32 35 20.7 37.8 0 30.3 20.7 33.1 20.7 5.8 7.5 8.6 7.5 27.4 0 30.3"></polygon>
                                </g>
                                <g id="Layer_3" transform="translate(49.000000, 47.000000)" fill-rule="nonzero">
                                    <path d="M28.2,0.8 C23.2,0.8 10.8,0.8 5.8,0.8 C4.9,0.8 4.2,1.5 4.2,2.4 C4.2,4.8 4.2,4.8 4.2,4.8 L29.8,4.8 C29.8,4.8 29.8,4.8 29.8,2.4 C29.8,1.5 29.1,0.8 28.2,0.8 Z M9,3.2 C8.6,3.2 8.2,2.8 8.2,2.4 C8.2,2 8.6,1.6 9,1.6 C9.4,1.6 9.8,2 9.8,2.4 C9.8,2.8 9.4,3.2 9,3.2 Z M25,3.2 C24.6,3.2 24.2,2.8 24.2,2.4 C24.2,2 24.6,1.6 25,1.6 C25.4,1.6 25.8,2 25.8,2.4 C25.8,2.8 25.4,3.2 25,3.2 Z" id="Shape_4_" fill="#C7C7C7"></path>
                                    <path d="M33,5.6 C33.1,5.1 31.9,4 31.4,4 C25.7,4 8.3,4 2.6,4 C1.8,4 0.9,5.1 1,5.6 C1.7,9.3 3.4,17.6 3.4,17.6 L30.6,17.6 C30.6,17.6 32.3,9.3 33,5.6 Z" id="Shape_5_" fill="#1976D2"></path>
                                    <path d="M30.6,17.6 L3.4,17.6 C3.4,17.6 1.7,25.9 1,29.6 C1,30.5 1.6,31.2 2.6,31.2 C8.3,31.2 25.7,31.2 31.4,31.2 C31.9,31.2 33,30.8 33,29.6 C32.3,25.9 30.6,17.6 30.6,17.6 Z" id="Shape_6_" fill="#1E88E5"></path>
                                    <path d="M14.2,17.6 C15,17.9 15.5,18.3 15.9,18.8 C16.2,19.4 16.4,20 16.4,20.8 C16.4,22.1 16,23.1 15.2,23.8 C14.4,24.5 13.3,24.9 12,24.9 C10.7,24.9 9.7,24.6 8.9,23.9 C8.1,23.2 7.7,22.3 7.7,21.1 L7.7,21 L9.5,21 C9.5,21.7 9.7,22.3 10.2,22.7 C10.6,23.1 11.3,23.3 12,23.3 C12.8,23.3 13.4,23.1 13.9,22.7 C14.4,22.3 14.6,21.6 14.6,20.8 C14.6,19.9 14.4,19.3 14,18.9 C13.6,18.5 13,18.3 12.1,18.3 L10.5,18.3 L10.5,17.6 L14.2,17.6 Z" id="Shape_7_" fill="#FAFAFA"></path>
                                    <rect id="Rectangle-path" fill="#FAFAFA" x="23.1" y="17.6" width="1.9" height="7.1"></rect>
                                    <path d="M9.6,14.4 L7.8,14.4 L7.8,14.3 C7.8,13.3 8.1,12.4 8.9,11.6 C9.7,10.9 10.7,10.5 12,10.5 C13.3,10.5 14.3,10.8 15.1,11.5 C15.9,12.2 16.2,13.2 16.2,14.4 C16.2,15 16,15.5 15.7,16.1 C15.4,16.7 14.8,17.1 14.1,17.4 L14.2,17.4 L10.4,17.4 L10.4,16.7 L12,16.7 C12.8,16.7 13.4,16.5 13.8,16.1 C14.2,15.7 14.3,15.1 14.3,14.4 C14.3,13.6 14.1,13 13.7,12.6 C13.3,12.2 12.7,12 12,12 C11.3,12 10.7,12.2 10.2,12.6 C9.8,13.1 9.6,13.7 9.6,14.4 Z" id="Shape_8_" fill="#E0E0E0"></path>
                                    <polygon id="Shape_9_" fill="#E0E0E0" points="25 17.6 23.1 17.6 23.1 12.6 20.3 12.7 20.3 11.3 25 10.8"></polygon>
                                    <path d="M2.6,4 C1.5,4 0.9,5.1 1,5.6 C1.7,9.3 3.4,17.6 3.4,17.6" id="Shape_10_" fill="#1976D2"></path>
                                    <path d="M30.6,17.6 C30.6,17.6 32.3,9.3 33,5.6 C33,4.3 31.9,4 31.4,4" id="Shape_11_" fill="#1976D2"></path>
                                </g>
                            </g>
                        </g>
                        <g id="Layer_2_1_" transform="translate(0.000000, 137.000000)" fill-rule="nonzero">
                            <g id="Layer_1-2">
                                <path d="M191.7,113.2 L91.2,171.2 C62.4,187.8 25.6,177.9 9,149.1 C-7.6,120.3 2.3,83.5 31.1,66.8 L131.6,8.8 C160.4,-7.8 197.2,2.1 213.8,30.9 C230.4,59.7 220.5,96.5 191.7,113.2 Z" id="Shape_12_" fill="#F0F7FC"></path>
                                <path d="M172.4,132.8 L156.1,8.7 C155.9,6.9 154.2,5.7 152.5,5.9 L65.5,17.4 C63.7,17.6 62.5,19.3 62.7,21 L76.3,124.4 C74.3,124.7 68.4,125.5 66.8,125.5 C66,125.5 64,127.2 61.9,129.1 C60.2,128.4 58.4,127.9 56.6,127.5 C56.3,127.5 53.9,125.9 52.9,125.8 C52.8,125.8 52.6,125.8 52.5,125.9 C54.1,123.5 55.1,122.1 55.1,122.1 L47.5,117.6 C45,119.8 36.4,128.6 32.5,144 L40.5,146.7 C40.8,146 41.2,145.3 41.5,144.7 C41.6,144.9 43,146.2 43.2,146.6 C44,148 45,149.4 46.1,150.5 C44.8,151.4 43.6,152.5 43.5,153.3 C43.2,155.8 47.3,158 48.4,158 C49.2,158 50.5,156.7 51.4,154.9 L52.6,155.7 C52.4,156 52.3,156.3 52.3,156.6 C52.6,159.2 56.6,160.9 58.1,159.8 C58.3,159.6 58.6,159.4 58.9,159.1 L60,159.6 C60.8,160.8 62.5,162.2 63.7,161.7 C63.9,161.6 64.1,161.5 64.3,161.3 L65,161.6 C64.9,163.1 67.3,164.7 68.8,164 C69.2,163.7 69.6,163.4 69.9,163 C70.2,163.1 70.6,163.1 70.9,163.1 C71.5,163.8 74.7,164 75.5,164 C76.3,164 78.8,162.6 78.4,161.5 C78.4,161.4 78.3,161.3 78.2,161.2 C78.8,161.3 79.4,161.4 80,161.5 C81.4,161.5 83.5,159.2 83,157.9 C82.9,157.7 82.6,157.5 82.1,157.3 C83.2,157.6 84.2,157.8 85.3,157.9 C87,157.9 89.2,155.3 88.6,153.7 C88.2,153.1 87.6,152.6 87,152.3 C88.6,153 90.4,153.4 92.1,153.6 C93.9,153.6 96,150.2 95.5,148.7 C94.9,147.8 94.2,147 93.3,146.4 L169.8,136.3 C171.4,136.2 172.6,134.6 172.4,132.8 Z M70.8,132.9 C71.4,132.7 72.1,132.8 72.7,133 C73.1,133.4 73.5,133.9 73.8,134.4 L70.8,132.9 Z M99.8,55.3 C100.2,55.1 100.6,54.9 101.1,54.6 C101.1,54.6 95.8,62.4 99.8,65.1 C103.9,67.8 108.6,71.1 117.6,70.5 C126.6,69.9 137.6,66.8 135.6,61.7 C133.6,56.6 131.3,51.2 131.3,51.2 C137.3,52.7 141.4,55.7 142,59.7 C142.9,66.6 132.3,73.6 118.3,75.5 C104.3,77.4 92.3,73.3 91.4,66.4 C90.8,62.4 94.1,58.4 99.8,55.3 Z M87.9,95.6 C87.7,94.1 88.7,92.8 90.1,92.6 L148.1,85 C149.5,84.8 150.8,85.8 151,87.2 L151,87.3 C151.2,88.7 150.2,90 148.8,90.2 L90.8,97.9 C89.4,98 88.1,97 87.9,95.6 Z M89.5,107.9 C89.3,106.4 90.3,105.1 91.7,104.9 L149.7,97.3 C151.1,97.1 152.4,98.1 152.6,99.5 L152.6,99.6 C152.8,101 151.8,102.3 150.4,102.5 L92.4,110.1 C91,110.3 89.7,109.3 89.5,107.9 Z M152.1,114.8 L97.4,122 C95.6,120.1 94,118.6 92.6,117.4 C92.8,117.3 93.1,117.2 93.3,117.2 L151.3,109.6 C152.7,109.4 154,110.4 154.2,111.8 L154.2,111.9 C154.5,113.3 153.5,114.6 152.1,114.8 Z" id="Shape_13_" fill="#FFFFFF"></path>
                                <path d="M120.9,47.4 C120.2,48.4 119.3,49.3 118.3,50 C116.4,51.5 111.1,51.3 109.9,51.1 C108.7,50.9 108.3,49.3 108.3,49.3 C104.6,49.2 104.4,47.3 102.6,45.1 C100.8,42.9 101,36.2 101,36.2 C101,36.2 110.7,34.2 113.8,34.5 C116.9,34.8 117,37.3 117.4,38.2 C117.8,39.1 118,42.4 119,42.3 C120,42.2 120.1,39.1 120.7,38.2 C121.3,37.3 121.5,39.1 121.5,39.7 C121.5,40.3 120.3,42.6 120.1,43.6 C119.9,44.6 120.9,47.4 120.9,47.4 Z" id="Shape_14_" fill="#FCD0A7"></path>
                                <path d="M31.1,107.9 L46,117.1 C39.7,125.1 34.7,134.1 31.4,143.7 L15.8,138.4 C15.9,138.4 15.2,119.8 31.1,107.9 Z M108.2,55.4 L107.5,54.2 C107.4,54 107.1,53.9 106.9,54 C105.6,54.9 101.3,58.3 101.5,63.8 C101.5,63.9 101.6,64.1 101.7,64.1 L105.7,66.4 C105.9,66.5 106.1,66.4 106.3,66.2 L106.3,66.1 L106.7,58 C106.7,57.7 106.9,57.4 107.1,57.2 L108.5,56 C108.5,55.9 108.5,55.8 108.5,55.7 L108.2,55.4 Z M125.2,52 C125.2,52 120.2,54.1 119,55.7 C118,57.1 112.9,66.1 111.6,68.5 C111.5,68.7 111.6,68.9 111.8,69.1 C111.9,69.1 111.9,69.1 112,69.2 C114.6,69.3 120.8,69.5 122.4,69.5 C122.6,69.5 122.8,69.3 122.8,69.1 C122.8,68.9 123,68.7 123.2,68.7 C123.4,68.7 123.5,68.8 123.6,69 C123.7,69.2 123.8,69.3 124,69.3 C127.4,68.8 130.6,67.4 133.4,65.4 C133.5,65.3 133.6,65.1 133.5,65 C131.9,57.2 127.2,53.1 125.2,52 Z" id="Shape_15_" fill="#4964A5"></path>
                                <path d="M124.4,130 L107.9,136.9 C102.9,126 91.2,115.3 91.2,115.3 L104.9,102.5 C122.7,110.5 124.4,130 124.4,130 Z" id="Shape_16_" fill="#444444"></path>
                                <path d="M122.8,25.2 C126.3,28.7 125.2,36.8 124.3,40 C123.6,42 122.3,43.7 120.5,44.8 C120.2,44.5 119.9,44 119.9,43.6 C119.8,42.7 120.9,41.3 120.9,41.3 C122.4,39.3 121.3,37.7 120,37.5 C118.7,37.3 119.4,39.8 118.8,41.6 C118.2,43.4 117.5,41.8 117.6,39.1 C117.8,36.9 116.4,34.9 114.3,34.3 C112.5,33.7 105.2,35.5 100.7,34.3 C96.2,33.1 95.1,28.9 98.5,24.1 C101.9,19.3 111.2,20.2 111.2,20.2 C111.2,20.2 119.3,21.7 122.8,25.2 Z M174.8,41.6 C175.1,41 176.6,40.8 177.3,40.8 L177.3,39.8 C177,39.8 174.7,39.9 174,41.1 C173.7,41.6 173.7,42.3 174,42.8 C174.3,43.3 174.1,43.6 174.1,43.7 C173.8,44.3 172.5,44.5 172.1,44.6 L172.2,45.6 C172.4,45.6 174.3,45.4 175,44.2 C175.3,43.6 175.3,43 174.9,42.4 C174.7,41.8 174.8,41.7 174.8,41.6 Z" id="Shape_17_" fill="#FBB03B"></path>
                                <path d="M110.2,60.5 C110.2,60.6 110.1,60.7 110.1,60.8 L110.8,68.1 C110.8,68.3 110.7,68.5 110.4,68.6 C110.3,68.6 110.3,68.6 110.2,68.6 L107,67.3 C106.8,67.2 106.7,67 106.8,66.8 L108.6,60.5 C108.6,60.5 108.6,60.4 108.6,60.3 L108.5,56.1 L109.5,54.6 L109.9,54.5 L110.1,54.9 L111.7,57.7 L110.2,60.5 Z M143.5,16.1 C143,15.4 142.2,14.9 141.3,14.9 C140.8,14.9 140.4,14.7 140.1,14.3 C139.5,13.2 140.5,10.9 141,10.1 L140,9.7 C139.8,10.1 138.2,13.1 139.1,14.9 C139.5,15.6 140.3,16 141.1,16 C141.7,16 142.2,16.2 142.5,16.7 C143.1,17.7 142.4,19.6 142.1,20.2 L143,20.6 C143.2,20.5 144.5,17.8 143.5,16.1 Z" id="Shape_18_" fill="#ED1E79"></path>
                                <path d="M106.8,42.8 C107,42.9 107.3,42.9 107.6,42.9 C108.1,42.9 108.6,42.7 109,42.5 C109.1,42.4 109.2,42.3 109.2,42.1 L108.7,38.4 C108.7,38.2 108.5,38.1 108.3,38.1 C108.2,38.1 108.1,38.2 108,38.3 C107.5,39 106,41.4 106.4,42.4 C106.4,42.6 106.6,42.8 106.8,42.8 Z M108.1,39.6 L108.4,42 C108,42.2 107.5,42.3 107.1,42.1 C107.2,41.2 107.5,40.3 108.1,39.6 Z M104.9,43.5 C104.8,43.6 104.8,43.8 104.9,43.9 C106,45.6 107.1,46.5 108.3,46.5 L108.5,46.5 C110.5,46.3 111.7,43.6 111.7,43.5 C111.8,43.3 111.7,43.1 111.6,43 C111.5,42.9 111.3,42.9 111.1,43 C110.3,43.7 107.1,43.5 105.3,43.2 C105.1,43.2 105,43.3 104.9,43.5 Z M110.5,44.1 C110.1,44.9 109.3,45.5 108.4,45.7 C107.6,45.8 106.8,45.2 106,44.1 C107.5,44.4 109,44.3 110.5,44.1 Z M112.6,40.2 L112.8,40.2 C113.5,40.1 114,39.4 113.9,38.7 C113.8,38 113.1,37.5 112.4,37.6 C111.7,37.7 111.2,38.4 111.3,39.1 C111.4,39.4 111.5,39.8 111.8,40 C112.1,40.1 112.3,40.2 112.6,40.2 Z M112.6,38.3 C113,38.3 113.2,38.5 113.2,38.8 C113.2,39.1 113,39.4 112.7,39.4 C112.4,39.4 112.1,39.2 112.1,38.9 C112,38.6 112.2,38.3 112.6,38.3 C112.5,38.3 112.5,38.3 112.6,38.3 Z M103.4,37.3 C102.7,37.4 102.2,38 102.3,38.8 C102.4,39.5 102.9,40 103.6,40 L103.8,40 C104.1,40 104.5,39.8 104.7,39.5 C104.9,39.2 105,38.9 105,38.5 C105,38.2 104.8,37.8 104.5,37.6 C104.1,37.4 103.7,37.3 103.4,37.3 Z M104,39 C103.9,39.1 103.8,39.2 103.6,39.2 C103.3,39.2 103,39 103,38.7 C103,38.4 103.2,38.1 103.5,38.1 L103.6,38.1 C103.7,38.1 103.8,38.1 103.9,38.2 C104,38.3 104.1,38.4 104.1,38.6 C104.1,38.7 104.1,38.8 104,39 Z M133.9,63.8 C132.4,56.3 127.8,52 125.4,50.6 C124.5,50.1 123.7,49.4 123.1,48.6 L122.3,47.5 C122.3,47.5 122.3,47.4 122.2,47.4 L121.6,45.5 C123.5,44.2 124.9,42.3 125.6,40.2 C126.5,37 127.9,27.9 123.9,23.9 C120,20.1 111.5,18.4 111.1,18.3 C110.7,18.3 100.7,17.3 97,22.6 C95,25.5 94.3,28.4 95.2,30.7 C96,32.6 97.7,33.9 99.6,34.3 C102.5,35.1 106.4,34.7 109.6,34.4 C111.2,34.1 112.8,34.1 114.3,34.3 C116.4,34.9 117.8,37 117.6,39.2 C117.6,39.8 117.5,42.9 118.6,43.1 C119.2,43.2 119.6,42.3 119.6,42 C119.8,41.2 120,40.3 120,39.4 C120,38.7 120.1,37.9 120.3,37.8 C120.4,37.8 120.5,37.8 120.6,37.8 C121.2,37.9 121.7,38.3 121.9,38.9 C122.1,39.8 121.9,40.7 121.3,41.3 C121.2,41.5 120,43 120.1,44.1 C120.2,44.7 120.4,45.2 120.8,45.6 L121.5,47.7 C120.9,48.4 120.3,49 119.6,49.6 C117.1,51.8 112,51.9 110.7,51.7 C110.2,51.6 109.8,51.3 109.6,50.9 C109.5,50.8 109.5,50.8 109.4,50.7 C111.9,50.6 114.3,50.1 116.6,49.2 C116.8,49.1 116.9,48.9 116.8,48.7 C116.7,48.5 116.5,48.4 116.3,48.5 C114,49.4 111.5,49.9 109,49.9 C105.3,49.9 103.5,47.2 102.3,45.4 L102,44.9 C101.6,44.2 100.9,42 100.3,35.3 C100.3,35 100.3,34.9 100.3,34.8 C100.3,34.6 100.1,34.5 99.9,34.5 C99.7,34.5 99.6,34.7 99.6,34.9 C99.6,35 99.6,35.1 99.7,35.4 C100.2,41 100.8,44.2 101.5,45.3 L101.8,45.8 C103,47.6 104.8,50.4 108.5,50.6 C108.4,50.6 108.4,50.7 108.3,50.8 L107.3,52.5 C107.3,52.6 107.3,52.6 107.3,52.7 C107.2,52.7 107.1,52.8 107,52.8 C105.6,53.8 101.2,57.3 101.4,62.9 C101.4,63.2 101.5,63.4 101.8,63.6 L105.8,65.9 C105.9,66 106.1,66 106.2,66 C106.3,66 106.4,66 106.5,65.9 C106.6,65.8 106.7,65.8 106.8,65.7 C106.7,66.1 106.9,66.4 107.2,66.5 L110.2,67.8 C110.3,67.8 110.4,67.9 110.5,67.9 C110.7,67.9 110.8,67.8 111,67.7 C111.2,67.5 111.3,67.3 111.3,67 L110.6,59.6 L111.9,57.3 C112,57.5 112.3,57.6 112.5,57.6 C112.6,57.6 112.7,57.6 112.8,57.5 C115,56.7 117,55.5 118.8,53.9 C120.8,51.9 123.1,49.8 123.2,49.7 C123.6,50.1 124,50.5 124.5,50.8 C123.1,51.4 119.8,53 118.8,54.3 C117.8,55.6 113.2,63.7 111.4,67.1 C111.3,67.3 111.3,67.6 111.4,67.9 C111.5,68.1 111.8,68.3 112.1,68.3 C114.7,68.4 120.7,68.6 122.5,68.6 C122.9,68.6 123.3,68.3 123.4,67.9 C123.5,68.3 123.9,68.5 124.3,68.5 C127.8,68 131,66.6 133.8,64.5 C133.8,64.4 133.9,64.1 133.9,63.8 Z M121.9,41.7 C122.7,40.9 122.9,39.7 122.6,38.6 C122.3,37.8 121.5,37.1 120.6,37 L120.3,37 C120.1,37 119.9,37.1 119.7,37.2 C119.2,37.6 119.2,38.4 119.1,39.4 C119.1,40.2 119,41 118.8,41.7 C118.7,41.9 118.7,42.1 118.6,42.2 C118.3,41.2 118.2,40.2 118.3,39.2 C118.5,36.7 116.9,34.3 114.5,33.6 C113.6,33.3 111.8,33.5 109.5,33.7 C106.4,34 102.6,34.4 99.8,33.7 C98,33.4 96.6,32.2 95.9,30.6 C95.1,28.6 95.8,26 97.6,23.2 C101,18.3 110.5,19.1 110.9,19.2 C111.3,19.3 119.7,21 123.3,24.6 C127.1,28.3 125.7,37.1 124.8,40.2 C124.2,42.2 122.9,43.9 121.2,45.1 C121,44.8 120.9,44.5 120.9,44.2 C120.9,43.2 121.3,42.4 121.9,41.7 Z M105.9,65.2 L101.9,62.9 C101.7,57.6 105.9,54.3 107.2,53.4 L108.1,55 L106.8,56 C106.5,56.3 106.2,56.7 106.2,57.1 L105.9,65.2 Z M106.7,65 L107,57.3 C107,57.1 107.1,56.9 107.3,56.7 L108.2,56 L108.3,59.3 L106.7,65 Z M109.9,59.3 C109.8,59.4 109.8,59.6 109.8,59.8 L110.4,67.2 L107.2,65.8 L109,59.6 C109,59.5 109,59.4 109,59.3 L108.9,55.1 C108.9,55 108.9,55 108.9,54.9 C109.1,54.8 109.2,54.7 109.2,54.6 L109.5,53.9 L109.9,53.9 L111.2,56.7 L109.9,59.3 Z M122.6,49.3 C122.5,49.4 120.2,51.4 118.2,53.5 C116.5,55 114.6,56.2 112.5,56.9 L110.8,53.5 C110.7,53.2 110.4,53 110.1,53 L110,53 L109.6,53.1 C109.3,53.1 109.1,53.3 109,53.5 L108.6,54.1 L108,53.1 L107.9,53 L107.8,52.8 L108.9,51.2 C109.3,51.8 109.8,52.2 110.5,52.3 C112.1,52.6 117.4,52.4 120,50.1 C120.6,49.6 121.3,49 121.8,48.3 C121.9,48.5 122.1,48.7 122.3,49 L122.4,49.1 L122.6,49.3 Z M133.1,64 C130.4,66 127.3,67.3 123.9,67.8 L123.8,67.7 C123.7,67.3 123.3,67.1 122.9,67.2 C122.5,67.3 122.2,67.6 122.2,68 C120.4,68 114.4,67.8 111.8,67.6 C113.3,64.9 118.2,56.1 119.2,54.8 C120.2,53.5 124.2,51.7 125.1,51.3 C127.5,52.7 131.7,56.8 133.1,64 L133.5,63.8 L133.1,64 Z M94.8,144.8 C94.6,144.6 94.3,144.6 94.1,144.8 C93.9,145 93.9,145.3 94.1,145.5 C95.2,146.5 95.3,146.8 95.3,146.9 C95.4,147.9 95.1,148.9 94.4,149.6 C94,150.4 93.2,150.9 92.3,151.1 C89.8,150.5 87.4,149.7 85,148.7 C84.8,148.6 84.5,148.7 84.4,148.9 C84.3,149.1 84.4,149.4 84.6,149.5 C84.9,149.7 85.3,149.9 85.9,150.2 C86.7,150.7 88.3,151.5 88.4,151.7 C88.6,152.4 88.4,153.1 88,153.6 C87.5,154.5 86.6,155.1 85.6,155.2 C85.3,155.2 83.1,154.7 81.5,154.3 C81.3,154.2 81,154.4 80.9,154.6 C80.8,154.8 80.9,155.1 81.1,155.2 C81.3,155.3 81.6,155.4 81.9,155.5 C82.2,155.6 82.7,155.8 82.8,155.9 C82.8,156.4 82.7,156.9 82.4,157.3 C81.9,158.1 81.2,158.6 80.3,158.8 C79.7,158.7 79.2,158.5 78.6,158.4 C78.1,158.3 77.5,158.1 77.2,158 C77,157.9 76.8,158.1 76.7,158.2 C76.6,158.4 76.6,158.6 76.8,158.8 C77,159 77.3,159.1 77.6,159.2 L78.2,159.5 C78.2,159.6 78.1,159.7 78.1,159.8 C77.5,160.5 76.7,161 75.8,161.2 C74.4,161.2 71.9,160.9 71.6,160.4 C72,159.7 72.3,158.9 72.5,158.1 C72.8,157 72.4,155.8 71.4,155.2 C70.8,154.9 70.1,154.8 69.5,155 C70,154 69.8,152.8 69.1,151.9 C68.1,150.9 66.5,150.7 65.3,151.4 C65.9,150.3 65.8,149 65,148 C63.9,146.8 62.1,146.4 60.5,147 C58.2,147.9 51.8,153.8 52,155.5 C52.4,157.1 53.5,158.5 55.1,159 C55.7,159.3 56.4,159.4 57.1,159.4 C57.6,159.4 58.2,159.3 58.6,159 C58.9,158.8 59.2,158.5 59.5,158.2 C60,159.2 60.9,160.1 61.9,160.7 C62.3,161 62.8,161.1 63.4,161.1 C63.6,161.1 63.9,161.1 64.1,161 C64.3,160.9 64.6,160.7 64.8,160.6 C64.9,161.4 65.3,162.2 66,162.7 C66.6,163.2 67.4,163.5 68.3,163.5 C68.6,163.5 69,163.4 69.3,163.3 C70.1,162.8 70.8,162.1 71.3,161.3 C72.5,162.2 76.1,162.2 76.1,162.2 C77.3,162 78.4,161.3 79.2,160.3 C79.4,160 79.5,159.7 79.5,159.4 C79.9,159.5 80.2,159.6 80.6,159.6 C81.8,159.4 82.9,158.7 83.5,157.7 C83.9,157.1 84.2,156.4 84.1,155.7 C84.7,155.8 85.3,155.9 85.9,156 C87.2,155.8 88.4,155.1 89.1,153.9 C89.7,153.1 89.9,152.1 89.6,151.1 C89.6,151 89.5,151 89.5,150.9 C90.5,151.3 91.6,151.6 92.7,151.8 C93.9,151.6 95,150.9 95.6,149.9 C96.3,148.9 97,147.3 96.6,146.3 C96,146 95.4,145.3 94.8,144.8 Z M59.4,157.3 C58.9,157.8 58.5,158.2 57.9,158.6 C57.1,159 56.2,158.9 55.4,158.5 C54.2,158.1 53.2,157 52.9,155.8 C52.9,154.9 58.3,149.4 60.8,148.3 C62,147.8 63.3,148.1 64.1,149 C64.7,149.8 64.7,150.9 64.1,151.7 C63.7,152.3 63.3,152.8 62.9,153.4 C61.5,154.4 60.3,155.8 59.4,157.3 Z M63.6,160.5 C63.2,160.6 62.7,160.5 62.3,160.3 C61.4,159.8 60.6,159 60.2,158 C61.5,156.8 62.6,155.4 63.7,154 C64.2,153.5 64.8,153.1 65.4,152.7 C66.3,152.1 67.5,152.2 68.2,152.9 C68.8,153.6 68.7,154.8 67.9,156 C67.7,156.3 67.5,156.5 67.3,156.8 C66.8,157.3 66.2,157.9 65.7,158.6 C65.2,159.3 64.4,159.9 63.6,160.5 Z M71.5,158.3 C71.1,160.1 70.1,161.6 68.7,162.8 C67.9,163 67,162.9 66.4,162.3 C65.9,162 65.6,161.4 65.6,160.8 C65.9,160.2 66.2,159.7 66.6,159.2 C67.2,158.6 67.7,158 68.2,157.4 C68.4,157.2 68.6,157 68.9,156.8 C69.4,156.1 70.3,156 71,156.5 C71.5,156.9 71.7,157.6 71.5,158.3 Z M104.3,101.5 L104,101.4 L89.2,114.1 L82.6,119.8 L83,120.2 C83,120.2 83.8,120.9 84.9,122.1 C84.2,122.7 83.5,123.3 82.8,123.8 C81,123 79.1,122.5 77.1,122.2 C76.8,122.2 75.8,122.4 74.3,122.5 C71.9,122.8 68.1,123.4 66.9,123.4 C65.7,123.4 63.4,125.4 59.9,128.7 C58.5,130.1 57.1,131.4 55.5,132.5 C54.8,132.8 54.5,133.5 54.6,134.2 C54.9,135.8 57.7,137.6 61.3,137.6 C64.9,137.6 66.7,135.4 68.1,133.8 C68.5,133.3 69,132.8 69.5,132.5 C71,131.6 72.1,131.7 72.5,131.9 C72.7,132.1 72.8,132.3 72.9,132.5 C74,134 76.6,137.4 80.6,137.7 C82,139.9 90.9,145.1 92,145.1 C93.1,145 96.2,142.2 96.4,139.5 C96.7,139.2 97.1,139 97.5,138.8 L97.8,138.6 C98.4,139.7 99,140.7 99.5,141.8 L99.7,142.3 L123.9,130 L123.9,129.7 C124.1,129.2 122.2,109.5 104.3,101.5 Z M97.2,137.7 C96,138.5 95.7,138.7 95.7,139.1 C95.6,141.2 92.8,143.8 92.2,143.9 C90.9,143.7 81.9,138.1 81.6,136.9 L81.5,136.5 L81.1,136.5 C77.4,136.4 74.9,133.1 73.8,131.6 C73.6,131.3 73.4,131 73.1,130.8 C72.4,130.3 70.8,130.3 69,131.3 C68.4,131.7 67.8,132.3 67.4,132.9 C66.1,134.4 64.4,136.3 61.3,136.3 C57.9,136.3 55.8,134.6 55.6,133.7 C55.6,133.5 55.6,133.3 55.9,133.2 C57.6,132 59.2,130.7 60.6,129.2 C62.8,127.2 66,124.1 66.9,124.1 C68.2,124.1 71.8,123.6 74.4,123.2 C75.7,123 76.8,122.9 77.1,122.9 C79,123.3 80.8,123.9 82.6,124.6 L82.8,124.7 L83,124.6 C83.9,124 84.8,123.4 85.6,122.7 C90.1,127.2 94,132.2 97.4,137.6 L97.2,137.7 Z M100.4,140.7 C100,139.7 99.4,138.8 98.9,137.8 C98.9,137.8 90.1,124.3 85.8,121.3 C85.1,120.6 84.5,120.1 84.2,119.7 L89.3,115.3 C96.8,121.2 102.8,128.7 106.9,137.3 L100.4,140.7 Z M107.7,137 C103.6,128.3 97.5,120.7 90,114.7 L104.2,102.5 C120,109.7 122.7,126.5 123.1,129.1 L107.7,137 Z M45.7,148.5 C45.8,148.6 45.9,148.7 46.1,148.7 C46.2,148.7 46.3,148.7 46.4,148.6 C46.6,148.4 46.6,148.1 46.4,147.9 C45.5,146.9 44.7,145.7 44,144.5 C43.7,144 43.3,143.6 42.9,143.2 C42.7,143 42.4,142.7 42.3,142.6 C42.3,142.5 42.2,142.5 42.2,142.5 C45.5,136.2 49.1,130.1 53,124.2 C53.1,124.3 53.2,124.4 53.3,124.4 C54.2,124.7 55.1,125.1 56,125.6 C56.3,125.8 56.7,126 57.1,126.1 C58.3,126.3 59.4,126.6 60.5,127 C60.5,127 60.6,127 60.7,127 C61,127 61.2,126.9 61.3,126.6 C61.3,126.3 61.2,126.1 60.9,126 C59.7,125.6 58.6,125.3 57.4,125.1 C57.3,125.1 56.9,124.9 56.6,124.7 C55.7,124.1 54.7,123.7 53.7,123.4 C54.9,121.7 55.6,120.7 55.6,120.7 L55.9,120.3 L31.5,105.9 L31.2,105.7 L30.9,105.9 C15,117.7 15.4,136.6 15.4,136.8 L15.4,137.2 L31.8,142.8 L40.7,145.8 L40.9,145.4 C41.2,144.8 41.5,144.2 41.8,143.6 L42.3,144.1 C42.7,144.4 43,144.8 43.3,145.2 C43.9,146.2 44.8,147.4 45.7,148.5 Z M16.3,136.2 C16.3,133.6 17.1,117.4 31.1,106.7 L46.5,115.8 C43.5,118.6 35.8,127.1 32,141.5 L16.3,136.2 Z M40.2,144.3 L33,141.8 C36.8,127.3 44.7,118.9 47.4,116.3 L54.3,120.4 C49,128 44.3,136 40.2,144.3 Z M51.9,149.2 C51,148.3 49.7,147.8 48.4,148.1 C47,148.5 43.3,150.9 43.1,152.6 C43,153.6 43.4,154.7 44.2,155.4 C45.3,156.7 46.8,157.5 48.5,157.8 C49.9,157.8 51.9,155.4 52.7,152.6 C53.1,151.3 52.8,150.1 51.9,149.2 Z M51.8,152.2 C51.1,154.8 49.3,156.7 48.6,156.7 C47.2,156.4 46,155.7 45,154.7 C44.4,154.2 44.1,153.5 44.2,152.7 C44.3,151.8 47.3,149.5 48.8,149.1 C49.7,149 50.6,149.3 51.3,150 C51.8,150.5 52.1,151.4 51.8,152.2 Z" id="Shape_19_" fill="#4D4D4D"></path>
                                <path d="M40.6,50.8 C40.2,50.2 39.6,49.8 38.9,49.7 C37.4,49.4 36,50.4 35.8,51.8 C35.7,52.5 35.8,53.2 36.2,53.8 C36.6,54.4 37.2,54.8 37.9,54.9 C38.1,54.9 38.2,55 38.4,55 C39.9,55 41.1,53.8 41.1,52.3 C41.1,51.8 40.9,51.3 40.6,50.8 Z M40,52.7 C39.9,53.1 39.7,53.5 39.3,53.8 C38.9,54 38.5,54.1 38.1,54 C37.7,53.9 37.3,53.7 37,53.3 C36.8,52.9 36.7,52.5 36.7,52.1 C36.8,51.7 37,51.3 37.4,51 C38.2,50.5 39.2,50.7 39.7,51.4 C40,51.8 40.1,52.2 40,52.7 Z" id="Shape_20_" fill="#8CC63F"></path>
                                <path d="M87,44.4 C86.8,44 86.5,43.6 86.1,43.4 C85.2,43 84.1,43.4 83.7,44.3 C83.3,45.2 83.7,46.3 84.6,46.7 C84.8,46.8 85.1,46.9 85.3,46.9 C85.5,46.9 85.7,46.9 85.9,46.8 C86.3,46.6 86.7,46.3 86.9,45.9 C87.2,45.3 87.2,44.9 87,44.4 Z M86,45.4 C85.9,45.6 85.8,45.7 85.6,45.8 C85.4,45.9 85.2,45.9 85,45.8 C84.6,45.6 84.4,45.2 84.6,44.8 C84.7,44.5 85,44.3 85.3,44.3 C85.4,44.3 85.5,44.3 85.6,44.4 C86,44.6 86.2,45 86,45.4 Z" id="Shape_21_" fill="#F15A24"></path>
                                <path d="M179.9,87.2 C179.4,85.7 177.7,84.9 176.2,85.5 C174.8,86 174,87.5 174.4,89 C174.9,90.5 176.5,91.4 178,90.9 C178.7,90.7 179.3,90.2 179.7,89.5 C180,88.7 180.1,87.9 179.9,87.2 Z M177.7,89.8 C177.2,90 176.7,89.9 176.3,89.7 C175.4,89.2 175,88 175.5,87.1 C175.7,86.7 176.1,86.3 176.6,86.2 C176.8,86.1 177,86.1 177.2,86.1 C178.2,86.1 179.1,86.9 179.1,88 C179,88.8 178.5,89.6 177.7,89.8 Z" id="Shape_22_" fill="#29ABE2"></path>
                                <path d="M79.7,5.7 L79.6,6.7 C78.9,6.7 77.4,6.7 77,7.3 C77,7.4 76.8,7.5 77,8 C77.3,8.6 77.2,9.2 76.9,9.8 C76.2,10.9 74.3,10.9 74,10.9 L74,9.9 C74.4,9.9 75.7,9.8 76.1,9.2 C76.1,9.1 76.3,8.9 76.1,8.3 C75.8,7.8 75.9,7.1 76.2,6.6 C77.1,5.5 79.5,5.7 79.7,5.7 Z" id="Shape_23_" fill="#662D91"></path>
                                <path d="M57.9,96.1 C57.6,95.2 56.6,94.6 55.7,94.9 C54.8,95.2 54.2,96.2 54.5,97.1 C54.6,97.5 55,97.9 55.4,98.1 C55.7,98.2 55.9,98.3 56.2,98.3 C56.4,98.3 56.6,98.3 56.7,98.2 C57.1,98.1 57.5,97.7 57.7,97.3 C57.9,97 58,96.6 57.9,96.1 Z M56.9,97 C56.8,97.2 56.6,97.3 56.4,97.4 C56.2,97.5 56,97.4 55.8,97.3 C55.6,97.2 55.5,97 55.4,96.8 C55.3,96.4 55.5,95.9 55.9,95.8 C56,95.8 56.1,95.8 56.1,95.8 C56.2,95.8 56.3,95.8 56.5,95.9 C56.7,96 56.8,96.2 56.9,96.4 C57,96.6 57,96.8 56.9,97 Z" id="Shape_24_" fill="#00A99D"></path>
                            </g>
                        </g>
                    </g>
                </g>
            </g>
            <g id="Shape_43_" transform="translate(0.000000, 446.000000)" fill-rule="nonzero">
                <path d="M109,19.3 C123.1,19.3 137,26.7 144.6,39.7 C155.8,59.2 149.1,84.4 129.6,95.5 L61.3,135 C41.8,146.2 16.7,139.5 5.5,120 C-5.7,100.5 1,75.4 20.5,64.2 L88.8,24.8 C95.1,21.1 102,19.3 109,19.3 Z" id="Shape_25_" fill="#F0F7FC"></path>
                <path d="M33.4,144.5 C33.4,128.4 46.6,115.2 62.7,115.2 L91.9,115.2 C108,115.2 121.2,128.4 121.2,144.5" id="Shape_26_" fill="#21354C"></path>
                <polygon id="Shape_28_" fill="#FFFFFF" points="92.4 113.5 83.1 144.6 64.8 144.6 56.2 113.3"></polygon>
                <path d="M84.3,102.8 L84.3,116.1 C84.3,119.7 80.9,122.6 76.9,122.6 L71.3,122.6 C67.2,122.6 63.9,119.7 63.9,116.1 L63.9,102.8" id="Shape_29_" fill="#FAC093"></path>
                <path d="M74.7,105.6 C56.5,105.6 41.6,90.7 41.6,72.5 L41.6,45.6 C41.6,27.4 56.5,12.5 74.7,12.5 C92.9,12.5 107.8,27.4 107.8,45.6 L107.8,72.5 C107.8,90.7 92.9,105.6 74.7,105.6 M41.2,73.6 C36.8,73.6 33.2,70 33.2,65.6 C33.2,61.2 36.8,57.6 41.2,57.6 M108.3,73.6 C112.7,73.6 116.3,70 116.3,65.6 C116.3,61.2 112.7,57.6 108.3,57.6 M98.9,133.9 C98.9,135.2 97.8,136.2 96.6,136.2 C95.3,136.2 94.3,135.1 94.3,133.9 C94.3,132.6 95.4,131.6 96.6,131.6 C97.9,131.6 98.9,132.6 98.9,133.9" id="Shape_30_" fill="#FFF0D1"></path>
                <path d="M63.3,60 C63.3,61.6 62.1,62.9 60.4,62.9 C58.8,62.9 57.5,61.7 57.5,60 C57.5,58.4 58.7,57.1 60.4,57.1 C62,57.2 63.3,58.5 63.3,60 M91,60 C91,58.4 89.8,57.1 88.1,57.1 C86.5,57.1 85.2,58.3 85.2,60 C85.2,61.6 86.4,62.9 88.1,62.9 C89.7,62.9 91,61.6 91,60" id="Shape_31_" fill="#142147"></path>
                <path d="M74.7,62.9 C74.7,62.9 78,67.3 79.5,69.5 C81.1,71.7 74.7,73.5 74.7,73.5 L74.7,62.9" id="Shape_32_" fill="#FAC093"></path>
                <path d="M84.2,81.4 C84.2,86.6 80,90.8 74.7,90.8 C69.5,90.8 65.3,86.6 65.3,81.4 L84.2,81.4 Z M81.6,124.4 C81.6,121 78.6,121.4 74.8,121.4 C71,121.4 68,121 68,124.4 C68,127.8 71,130.5 74.8,130.5 C78.5,130.6 81.6,127.8 81.6,124.4 Z M70.8,130 L67.1,141.2 C66.4,143.4 68,145.6 70.3,145.6 L79,145.6 C81.4,145.6 83,143.2 82.2,141 L78.1,130.3 L70.8,130 Z" id="Shape_34_" fill="#EC989B"></path>
                <path d="M74.1,107.7 C55.7,107.7 40.8,93.8 40.8,76.7 L40.8,51.7 C40.8,47 42.2,40.5 44.6,34.9 C46.1,31.2 49.3,24.8 53.7,22.7 C55.9,21.6 58.2,22 60.2,23.7 C67.6,29.8 91.4,29.4 96.1,29.3 C96.7,29.3 97.2,29.5 97.7,29.9 C104,35.8 107.5,43.6 107.5,51.8 L107.5,76.7 C107.4,93.8 92.4,107.7 74.1,107.7 Z M56.2,22.6 C55.5,22.6 54.6,22.8 53.8,23.2 C46.8,26.5 41.2,42.8 41.2,51.7 L41.2,76.7 C41.2,93.5 55.9,107.2 74,107.2 C92.1,107.2 106.8,93.5 106.8,76.7 L106.8,51.7 C106.8,43.6 103.4,35.9 97.2,30.2 C96.9,29.9 96.5,29.8 96,29.8 C91.3,29.9 67.3,30.4 59.8,24.2 C58.7,23.1 57.5,22.6 56.2,22.6 Z M40.7,72 C36.4,72 32.9,68.5 32.9,64.2 C32.9,59.9 36.4,56.4 40.7,56.4 L40.7,56 C36.2,56 32.4,59.7 32.4,64.3 C32.4,68.8 36.1,72.6 40.7,72.6 L40.7,72 Z M116,64.2 C116,59.7 112.3,55.9 107.7,55.9 L107.7,56.4 C112,56.4 115.5,59.9 115.5,64.2 C115.5,68.5 112,72 107.7,72 L107.7,72.5 C112.4,72.5 116,68.8 116,64.2 Z M74.7,89.8 C69.4,89.8 65,85.5 65,80.1 L65,79.9 L84.4,79.9 L84.4,80.1 C84.4,85.5 80.1,89.8 74.7,89.8 Z M65.5,80.4 C65.6,85.4 69.7,89.4 74.7,89.4 C79.7,89.4 83.8,85.4 83.9,80.4 L65.5,80.4 Z M73.9,129.8 C70,129.8 66.8,126.9 66.8,123.4 C66.8,122.4 67,121.7 67.6,121.1 C68.7,120 70.6,120.1 72.9,120.1 C73.5,120.1 74.2,120.1 74.8,120.1 C77.1,120.1 79,120 80.1,121.1 C80.6,121.6 80.9,122.3 80.9,123.4 C81,126.9 77.8,129.8 73.9,129.8 Z M72,120.6 C70.2,120.6 68.7,120.7 67.9,121.5 C67.5,121.9 67.3,122.6 67.3,123.4 C67.3,126.6 70.3,129.3 73.9,129.3 C77.5,129.3 80.5,126.6 80.5,123.4 C80.5,122.5 80.3,121.9 79.9,121.5 C79,120.6 77.1,120.6 74.9,120.6 C74.3,120.6 73.6,120.6 72.9,120.6 C72.6,120.6 72.3,120.6 72,120.6 Z M81.1,143.2 C81.8,142.2 81.9,141 81.5,139.8 L77.4,129.1 L77,129.3 L81.1,140 C81.5,141 81.3,142 80.7,142.9 C80.1,143.8 79.1,144.3 78.1,144.3 L69.4,144.3 C68.4,144.3 67.5,143.8 66.9,143 C66.3,142.2 66.2,141.1 66.5,140.2 L70.2,129 L69.8,128.9 L66.1,140.1 C65.7,141.2 65.9,142.4 66.6,143.3 C67.3,144.2 68.3,144.8 69.5,144.8 L78.2,144.8 C79.4,144.8 80.5,144.2 81.1,143.2 Z" id="Shape_35_" fill="#101D44"></path>
                <path d="M109.4,141.3 L92.4,141.3 C91.6,141.3 91,140.6 91,139.9 L91,129 C91,128.2 91.7,127.6 92.4,127.6 L109.4,127.6 C110.2,127.6 110.8,128.3 110.8,129 L110.8,139.9 C110.9,140.6 110.2,141.3 109.4,141.3" id="Shape_36_" fill="#FFFFFF"></path>
                <path d="M92.9,138.3 C92.9,137.1 94.6,136.2 96.6,136.2 C98.6,136.2 100.3,137.1 100.3,138.3" id="Shape_37_" fill="#60CEF6"></path>
                <path d="M39.9,56.7 C35.1,56.6 31,52.9 30.9,48.1 C29.8,18.6 45.5,7.6 62.6,2.8 C81.7,-2.6 105.6,2.4 109.3,6.1 C113,9.8 107.3,14.4 107.3,14.4 C107.3,14.4 115.6,18.9 117.2,38 C117.9,45.8 117.3,50.9 116.3,54.3 C115.4,57.2 112.7,58.8 109.7,58.7 C108.3,58.6 107.3,59.3 107.3,59.3 C107.3,59.3 105.9,47.6 105.4,40.7 C105,33.7 96.1,30.3 96.1,30.3 C89.5,33.2 73,31.5 66.7,28.8 C60.5,26.1 57.9,24.6 50.1,30.5 C42.2,36.3 41.5,57.2 41.5,57.2 C40.9,56.8 40.4,56.7 39.9,56.7 M94.2,52.8 C95.2,52.8 96.1,51.9 96.1,50.9 C96.1,49.8 95.2,49 94.2,49 L82.2,49 C81.2,49 80.3,49.8 80.3,50.9 C80.3,51.9 81.2,52.8 82.2,52.8 L94.2,52.8 M66.4,52.8 C67.5,52.8 68.3,51.9 68.3,50.9 C68.3,49.8 67.5,49 66.4,49 L54.4,49 C53.3,49 52.5,49.8 52.5,50.9 C52.5,51.9 53.3,52.8 54.4,52.8 L66.4,52.8 M94.5,132.2 C94.5,132.2 94,132.7 94.6,132.9 C95.2,133.1 96.5,132.5 97.1,132.6 C97.8,132.7 98.2,133.4 98.5,133.5 C98.7,133.6 99.7,133.5 99.4,132.9 C99.1,132.3 97.2,131.1 96.1,131.2 C95,131.3 94.5,132.2 94.5,132.2" id="Shape_38_" fill="#773D41"></path>
                <path d="M100.8,129.8 C100.1,129.8 99.6,129.2 99.6,128.6 L99.6,127.6 C99.6,126.9 100.2,126.4 100.8,126.4 C101.5,126.4 102,127 102,127.6 L102,128.6 C102,129.2 101.5,129.8 100.8,129.8" id="Shape_39_" fill="#FF4B52"></path>
                <path d="M17.9,25.3 C16.2,25.3 14.7,26.7 14.7,28.5 C14.7,30.2 16.1,31.7 17.9,31.7 C19.6,31.7 21.1,30.3 21.1,28.5 C21.1,26.7 19.6,25.3 17.9,25.3 Z M17.9,31.1 C16.5,31.1 15.3,29.9 15.3,28.5 C15.3,27.1 16.5,25.9 17.9,25.9 C19.3,25.9 20.5,27.1 20.5,28.5 C20.5,30 19.3,31.1 17.9,31.1 Z" id="Shape_40_" fill="#EA53A6"></path>
                <path d="M136.9,62.4 C135.9,62.4 135.2,63.2 135.2,64.1 C135.2,65.1 136,65.8 136.9,65.8 C137.8,65.8 138.6,65 138.6,64.1 C138.6,63.2 137.9,62.4 136.9,62.4 Z M136.9,65.3 C136.3,65.3 135.8,64.8 135.8,64.2 C135.8,63.6 136.3,63.1 136.9,63.1 C137.5,63.1 138,63.6 138,64.2 C138,64.8 137.5,65.3 136.9,65.3 Z" id="Shape_41_" fill="#91E24B"></path>
                <path d="M22.2,95.4 C21.2,95.4 20.5,96.2 20.5,97.1 C20.5,98 21.3,98.8 22.2,98.8 C23.2,98.8 23.9,98 23.9,97.1 C24,96.2 23.2,95.4 22.2,95.4 Z M22.2,98.2 C21.6,98.2 21.1,97.7 21.1,97.1 C21.1,96.5 21.6,96 22.2,96 C22.8,96 23.3,96.5 23.3,97.1 C23.3,97.7 22.9,98.2 22.2,98.2 Z" id="Shape_42_" fill="#3B67F4"></path>
            </g>
            <g id="Shape_54_" transform="translate(220.000000, 446.000000)" fill-rule="nonzero">
                <path d="M109,18.9 C123.1,18.9 137,26.3 144.6,39.3 C155.8,58.8 149.1,84 129.6,95.1 L61.3,134.5 C41.8,145.7 16.7,139 5.5,119.5 C-5.7,100 1,74.9 20.5,63.7 L88.8,24.3 C95.1,20.6 102,18.9 109,18.9 Z" id="Shape_44_" fill="#F0F7FC"></path>
                <path d="M33.5,138 C33.5,121.9 46.7,108.7 62.8,108.7 L92,108.7 C108.1,108.7 121.3,121.9 121.3,138" id="Shape_45_" fill="#285D9F"></path>
                <path d="M84.5,102.4 L84.5,115.7 C84.5,119.3 81.1,122.2 77.1,122.2 L71.5,122.2 C67.4,122.2 64.1,119.3 64.1,115.7 L64.1,102.4" id="Shape_46_" fill="#FAC093"></path>
                <path d="M74.9,105.2 C56.7,105.2 41.8,90.3 41.8,72.1 L41.8,45.2 C41.8,27 56.7,12.1 74.9,12.1 C93.1,12.1 108,27 108,45.2 L108,72.1 C108,90.3 93.1,105.2 74.9,105.2 M41.4,73.1 C37,73.1 33.4,69.5 33.4,65.1 C33.4,60.7 37,57.1 41.4,57.1 M108.4,57.1 C112.8,57.1 116.4,60.7 116.4,65.1 C116.4,69.5 112.8,73.1 108.4,73.1" id="Shape_47_" fill="#FFF0D1"></path>
                <path d="M40.1,56.3 C35.3,56.2 31.2,52.5 31.1,47.7 C30,18.2 45.7,7.2 62.8,2.4 C81.9,-3 105.8,2 109.5,5.7 C113.2,9.4 107.5,14 107.5,14 C107.5,14 115.8,18.5 117.4,37.6 C118.1,45.4 117.5,50.5 116.5,53.9 C115.6,56.8 112.9,58.4 109.9,58.3 C108.5,58.2 107.5,58.9 107.5,58.9 C107.5,58.9 106.1,47.2 105.6,40.3 C105.1,33.4 96.3,29.9 96.3,29.9 C89.7,32.8 73.2,31.1 66.9,28.4 C60.7,25.7 58.1,24.2 50.3,30.1 C42.4,35.9 41.7,56.8 41.7,56.8 C41.1,56.4 40.6,56.3 40.1,56.3 M94.4,52.4 L82.4,52.4 C81.4,52.4 80.5,51.5 80.5,50.5 C80.5,49.4 81.4,48.6 82.4,48.6 L94.4,48.6 C95.4,48.6 96.3,49.4 96.3,50.5 C96.2,51.5 95.4,52.4 94.4,52.4 M66.6,52.4 L54.6,52.4 C53.5,52.4 52.7,51.5 52.7,50.5 C52.7,49.4 53.5,48.6 54.6,48.6 L66.6,48.6 C67.7,48.6 68.5,49.4 68.5,50.5 C68.5,51.5 67.7,52.4 66.6,52.4" id="Shape_48_" fill="#9D463E"></path>
                <path d="M63.5,59.7 C63.5,61.3 62.3,62.6 60.6,62.6 C59,62.6 57.7,61.4 57.7,59.7 C57.7,58.1 58.9,56.8 60.6,56.8 C62.2,56.8 63.5,58.1 63.5,59.7 M91.2,59.7 C91.2,61.3 90,62.6 88.3,62.6 C86.7,62.6 85.4,61.4 85.4,59.7 C85.4,58.1 86.6,56.8 88.3,56.8 C89.9,56.8 91.2,58.1 91.2,59.7" id="Shape_49_" fill="#142147"></path>
                <path d="M74.9,62.5 C74.9,62.5 78.2,66.9 79.7,69.1 C81.2,71.3 74.9,73.1 74.9,73.1 L74.9,62.5" id="Shape_50_" fill="#FAC093"></path>
                <path d="M97.8,29.4 C97.4,29 96.8,28.8 96.2,28.8 C91.5,28.9 67.7,29.4 60.3,23.2 C58.3,21.5 56.1,21.2 53.8,22.2 C49.5,24.2 46.2,30.7 44.7,34.4 C42.3,40 40.9,46.5 40.9,51.2 L40.9,76.3 C40.9,93.4 55.9,107.3 74.2,107.3 C92.5,107.3 107.5,93.4 107.5,76.3 L107.5,51.3 C107.6,43.1 104.1,35.3 97.8,29.4 Z M107.1,76.3 C107.1,93.1 92.4,106.8 74.3,106.8 C56.2,106.8 41.5,93.1 41.5,76.3 L41.5,51.3 C41.5,42.4 47.1,26 54.1,22.8 C54.9,22.4 55.7,22.2 56.5,22.2 C57.7,22.2 59,22.7 60.2,23.7 C67.8,30 91.7,29.5 96.4,29.3 C96.8,29.3 97.3,29.4 97.6,29.7 C103.8,35.5 107.2,43.2 107.2,51.2 L107.1,76.3 Z M40.9,55.6 L40.9,56.1 C36.6,56.1 33.1,59.6 33.1,63.9 C33.1,68.2 36.6,71.7 40.9,71.7 L40.9,72.2 C36.4,72.2 32.6,68.5 32.6,63.9 C32.7,59.3 36.3,55.6 40.9,55.6 Z M116.2,63.8 C116.2,68.3 112.5,72.1 107.9,72.1 L107.9,71.6 C112.2,71.6 115.7,68.1 115.7,63.8 C115.7,59.5 112.2,56 107.9,56 L107.9,55.5 C112.5,55.6 116.2,59.3 116.2,63.8 Z M82.6,85.9 C82.7,86 82.7,86.1 82.6,86.2 C80.9,88.2 78.1,89.4 75.2,89.4 C72,89.4 69.1,88 67.4,85.8 C67.3,85.7 67.3,85.6 67.5,85.5 C67.7,85.4 67.7,85.4 67.8,85.6 C69.3,87.7 72.1,89 75.2,89 C78.1,89 80.7,87.9 82.3,86 C82.3,85.9 82.4,85.9 82.6,85.9 Z M71.9,64.3 C71.9,58.5 67.1,53.7 61.3,53.7 C55.5,53.7 50.7,58.5 50.7,64.3 C50.7,70.1 55.5,74.9 61.3,74.9 C67.1,74.9 71.9,70.1 71.9,64.3 Z M61.3,74.4 C55.7,74.4 51.2,69.9 51.2,64.3 C51.2,58.7 55.7,54.2 61.3,54.2 C66.9,54.2 71.4,58.7 71.4,64.3 C71.5,69.8 66.9,74.4 61.3,74.4 Z M89.2,53.7 C83.4,53.7 78.6,58.5 78.6,64.3 C78.6,70.1 83.4,74.9 89.2,74.9 C95,74.9 99.8,70.1 99.8,64.3 C99.8,58.5 95,53.7 89.2,53.7 Z M89.2,74.4 C83.6,74.4 79.1,69.9 79.1,64.3 C79.1,58.7 83.6,54.2 89.2,54.2 C94.8,54.2 99.3,58.7 99.3,64.3 C99.3,69.8 94.8,74.4 89.2,74.4 Z" id="Shape_51_" fill="#101D44"></path>
                <path d="M137.1,63.4 C136.1,63.4 135.4,64.2 135.4,65.1 C135.4,66.1 136.2,66.8 137.1,66.8 C138,66.8 138.8,66 138.8,65.1 C138.8,64.2 138,63.4 137.1,63.4 Z M137.1,66.3 C136.5,66.3 136,65.8 136,65.2 C136,64.6 136.5,64.1 137.1,64.1 C137.7,64.1 138.2,64.6 138.2,65.2 C138.2,65.8 137.7,66.3 137.1,66.3 Z" id="Shape_52_" fill="#8953C9"></path>
                <path d="M21,96.3 C19.3,96.3 17.8,97.7 17.8,99.5 C17.8,101.3 19.2,102.7 21,102.7 C22.8,102.7 24.2,101.3 24.2,99.5 C24.2,97.8 22.8,96.3 21,96.3 Z M21,102.1 C19.6,102.1 18.4,100.9 18.4,99.5 C18.4,98.1 19.6,96.9 21,96.9 C22.4,96.9 23.6,98.1 23.6,99.5 C23.6,100.9 22.4,102.1 21,102.1 Z" id="Shape_53_" fill="#F79C39"></path>
            </g>
            <path d="M141.9,388.6 C141.5,388.6 141.1,388.4 141,388 L139.8,385 C139.6,384.5 139.7,383.9 140.2,383.7 C140.7,383.5 141.3,383.6 141.5,384.1 C141.5,384.1 141.5,384.2 141.6,384.2 L142,385 C144.2,380.9 149.3,379.4 153.4,381.6 C155.7,382.8 157.3,385.1 157.7,387.7 C157.8,388.2 157.4,388.8 156.9,388.8 L156.7,388.8 C156.2,388.8 155.8,388.4 155.7,387.9 C155.1,384.4 151.9,382.1 148.4,382.6 C146.4,382.9 144.6,384.2 143.7,386.1 L145.2,385.8 C145.8,385.7 146.3,386 146.4,386.6 C146.5,387.2 146.2,387.7 145.6,387.8 L142.2,388.5 L141.9,388.6 Z M158.3,394.8 L157.1,391.6 C156.9,391.1 156.5,390.9 156,391 L152.9,391.5 C152.3,391.6 152,392.1 152.1,392.7 C152.2,393.3 152.7,393.6 153.3,393.5 L154.3,393.3 L154.2,393.4 C151.8,396 147.8,396.2 145.2,393.9 C144.4,393.2 143.8,392.2 143.4,391.2 C143.2,390.7 142.6,390.4 142.1,390.6 C141.6,390.8 141.4,391.3 141.5,391.8 C143,396.2 147.8,398.5 152.2,397 C153.5,396.5 154.7,395.7 155.7,394.7 C155.8,394.6 155.9,394.4 156.1,394.2 L156.6,395.5 C156.7,395.9 157.1,396.2 157.5,396.2 C157.6,396.2 157.7,396.2 157.8,396.1 C158.2,395.8 158.4,395.3 158.3,394.8 Z" id="Shape_33_" fill="#666666" fill-rule="nonzero"></path>
            <path d="M87.9,388.5 C86.1,385.6 83.7,382.7 78.9,382.7 C73.5,382.7 70.3,388.3 70.1,388.5 C70,388.6 70,388.8 70,389 C70,389.2 70,389.4 70.1,389.5 C70.2,389.7 73.5,395.3 78.9,395.3 C83.7,395.3 86.1,392.4 87.9,389.5 C88,389.4 88,389.2 88,389 C88,388.8 88,388.6 87.9,388.5 Z M78.9,393.8 C75,393.8 72.3,390 71.7,389 C72.4,388 75,384.2 78.9,384.2 C82.6,384.2 84.6,386.1 86.4,389 C84.6,391.9 82.6,393.8 78.9,393.8 Z M79,385.3 C77,385.3 75.3,386.9 75.3,388.9 C75.3,390.9 76.9,392.6 78.9,392.6 C80.9,392.6 82.6,391 82.6,389 C82.7,387 81,385.3 79,385.3 Z M79,391.1 C77.9,391.1 76.9,390.2 76.9,389 C76.9,387.8 77.8,386.9 79,386.9 C80.1,386.9 81.1,387.8 81.1,389 C81.1,390.2 80.2,391.1 79,391.1 Z" id="Shape_27_" fill="#666666" fill-rule="nonzero"></path>
            <g id="Layer_1-2_1_" transform="translate(0.000000, 380.000000)" fill="#666666" fill-rule="nonzero">
                <path d="M6.5,16.8 C6.5,17.2 6.2,17.5 5.7,17.6 L2.7,17.6 C1.7,17.6 1,16.8 0.9,15.8 L0.9,1.8 C0.9,0.8 1.7,0.1 2.7,6.66133815e-16 L14.7,6.66133815e-16 C15.7,6.66133815e-16 16.4,0.8 16.5,1.8 L16.5,5.6 C16.5,6 16.2,6.4 15.7,6.4 C15.2,6.4 14.9,6.1 14.9,5.6 L14.9,1.8 C14.9,1.7 14.8,1.6 14.7,1.6 L2.7,1.6 C2.6,1.6 2.5,1.7 2.5,1.8 L2.5,15.8 C2.5,15.9 2.6,16 2.7,16 L5.7,16 C6.2,16 6.5,16.3 6.5,16.8 Z M16.1,11.6 L12.3,11.6 L12.3,7.8 C12.3,7.2 11.9,6.8 11.3,6.8 C10.7,6.8 10.3,7.2 10.3,7.8 L10.3,11.6 L6.5,11.6 C5.9,11.6 5.5,12 5.5,12.6 C5.5,13.2 5.9,13.6 6.5,13.6 L10.3,13.6 L10.3,17.4 C10.3,18 10.7,18.4 11.3,18.4 C11.9,18.4 12.3,18 12.3,17.4 L12.3,13.6 L16.1,13.6 C16.7,13.6 17.1,13.2 17.1,12.6 C17.1,12 16.7,11.5 16.1,11.6 Z" id="Shape_55_"></path>
            </g>
            <g id="Layer_1-2_2_" transform="translate(105.000000, 380.000000)" fill="#666666" fill-rule="nonzero">
                <path d="M5.5,16.8 C5.5,17.2 5.2,17.5 4.7,17.6 L2.7,17.6 C1.7,17.6 1,16.8 0.9,15.8 L0.9,1.8 C0.9,0.8 1.7,0.1 2.7,6.66133815e-16 L14.7,6.66133815e-16 C15.7,6.66133815e-16 16.4,0.8 16.5,1.8 L16.5,5.6 C16.5,6 16.2,6.4 15.7,6.4 C15.2,6.4 14.9,6.1 14.9,5.6 L14.9,1.8 C14.9,1.7 14.8,1.6 14.7,1.6 L2.7,1.6 C2.6,1.6 2.5,1.7 2.5,1.8 L2.5,15.8 C2.5,15.9 2.6,16 2.7,16 L4.7,16 C5.2,16 5.5,16.3 5.5,16.8 Z M18.1,6.8 C17.7,6.4 17.1,6.4 16.7,6.8 L10.6,13.2 L8.4,11.4 C8,11 7.3,11.1 7,11.6 C6.6,12 6.7,12.7 7.2,13.1 L10,15.5 C10.2,15.6 10.4,15.7 10.6,15.7 C10.9,15.7 11.1,15.6 11.3,15.4 L18.1,8.3 C18.5,7.8 18.5,7.2 18.1,6.8 Z" id="Shape_56_"></path>
            </g>
            <g id="Layer_1-2_3_" transform="translate(177.000000, 378.000000)" fill="#666666" fill-rule="nonzero">
                <path d="M8.8,11.3 C11.6,10.4 13.1,7.5 12.3,4.7 C11.4,1.9 8.5,0.4 5.7,1.2 C2.9,2.1 1.4,5 2.2,7.8 C2.6,9 3.4,10.1 4.5,10.7 C1.8,12.1 0.1,14.9 0.1,17.9 C0.1,18.4 0.5,18.7 0.9,18.7 C1.4,18.7 1.7,18.3 1.7,17.9 C1.7,14.3 4.6,11.4 8.2,11.4 C8.5,11.6 8.7,11.5 8.8,11.3 Z M7.3,2.7 C9.3,2.7 10.9,4.3 10.9,6.3 C10.9,8.3 9.3,9.9 7.3,9.9 C5.3,9.9 3.7,8.3 3.7,6.3 C3.7,4.4 5.3,2.7 7.3,2.7 Z M17.6,13.9 L16.7,13.9 C16.7,13.8 16.6,13.7 16.6,13.7 L17,13.2 C17.3,12.9 17.3,12.4 17,12.1 L16.2,11.3 C16.1,11.2 15.9,11.1 15.7,11.1 C15.5,11.1 15.3,11.2 15.2,11.3 L15,11.5 L15,11.1 C15,10.7 14.7,10.3 14.2,10.3 L13.1,10.3 C12.7,10.3 12.3,10.6 12.3,11.1 L12.3,11.9 L11.7,11.3 C11.6,11.2 11.4,11.1 11.2,11.1 C11,11.1 10.8,11.2 10.7,11.3 L9.9,12.1 C9.8,12.2 9.7,12.4 9.7,12.6 C9.7,12.8 9.8,13 9.9,13.1 L10.5,13.7 L9.6,13.7 C9.2,13.7 8.8,14 8.8,14.5 L8.8,15.6 C8.8,16 9.1,16.4 9.6,16.4 L10.3,16.4 L9.6,17.1 C9.3,17.4 9.3,17.9 9.6,18.2 L10.4,19 C10.6,19.1 10.7,19.2 10.9,19.2 C11.1,19.2 11.3,19.1 11.4,19 L12.1,18.2 L12.1,19.2 C12.1,19.6 12.4,20 12.9,20 L14,20 C14.4,20 14.8,19.7 14.8,19.2 L14.8,18.4 L15.4,19 C15.6,19.1 15.7,19.2 16,19.2 C16.2,19.2 16.4,19.1 16.5,19 L17.3,18.2 C17.6,17.9 17.6,17.4 17.3,17.1 L16.8,16.5 L17.6,16.5 C18,16.5 18.4,16.2 18.4,15.7 L18.4,14.6 C18.4,14.3 18.1,13.9 17.6,13.9 Z M17.3,15.5 L16.3,15.5 C16.1,15.5 15.8,15.7 15.8,15.9 C15.8,16.1 15.7,16.2 15.6,16.4 C15.5,16.6 15.5,16.9 15.7,17.1 L16.4,17.8 L16.1,18.1 L15.3,17.3 C15.1,17.1 14.9,17.1 14.6,17.2 C14.5,17.3 14.3,17.3 14.2,17.4 C14,17.5 13.8,17.7 13.8,17.9 L13.8,19 L13.4,19 L13.4,17.9 C13.4,17.7 13.2,17.4 13,17.4 C12.8,17.3 12.6,17.3 12.5,17.2 C12.3,17.1 12,17.1 11.8,17.3 L11,18.2 L10.7,17.9 L11.6,17 C11.8,16.8 11.8,16.6 11.7,16.3 C11.6,16.2 11.6,16.1 11.5,15.9 C11.4,15.7 11.2,15.5 11,15.5 L10,15.5 L10,15 L10.9,15 C11.2,15 11.4,14.8 11.4,14.6 C11.4,14.4 11.5,14.2 11.6,14.1 C11.7,13.9 11.7,13.6 11.5,13.4 L10.9,12.8 L11.2,12.5 L11.8,13.1 C12,13.3 12.2,13.3 12.5,13.2 C12.7,13.1 12.9,13 13,13 C13.2,12.9 13.4,12.7 13.4,12.5 L13.4,11.6 L13.8,11.6 L13.8,12.5 C13.8,12.7 14,13 14.2,13 C14.3,13 14.4,13.1 14.5,13.1 C14.7,13.2 15,13.2 15.1,13 L15.6,12.5 L15.9,12.8 L15.4,13.3 C15.2,13.5 15.2,13.8 15.4,14 C15.5,14.2 15.6,14.5 15.7,14.7 C15.8,14.9 16,15.1 16.2,15.1 L17.1,15.1 L17.3,15.5 Z" id="Shape_57_"></path>
            </g>
            <g id="Layer_1-2_4_" transform="translate(217.000000, 380.000000)" fill="#666666" fill-rule="nonzero">
                <path d="M17,14.9 L17,16.8 C17,17.2 16.7,17.5 16.3,17.6 C16,17.6 15.8,17.5 15.7,17.2 C14.9,17.9 14,18.3 12.9,18.3 C10.6,18.4 8.7,16.7 8.6,14.4 C8.5,12.1 10.2,10.2 12.5,10.1 C12.6,10.1 12.8,10.1 12.9,10.1 C14.5,10.1 15.9,11 16.6,12.4 C16.8,12.8 16.6,13.2 16.2,13.4 C15.8,13.6 15.4,13.4 15.2,13.1 C14.6,11.8 13,11.3 11.7,11.9 C10.4,12.5 9.9,14.1 10.5,15.4 C11.1,16.7 12.7,17.2 14,16.6 C14.3,16.4 14.6,16.2 14.9,15.9 L14.5,15.9 C14.1,15.9 13.7,15.6 13.7,15.2 C13.7,14.8 14,14.4 14.4,14.4 L16.2,14.2 C16.6,14.2 17,14.5 17,14.9 C17,14.8 17,14.8 17,14.9 Z M16.8,6.7 L14.9,6.7 C14.8,6.4 14.7,6.1 14.5,5.9 L15.5,4.8 C15.7,4.6 15.8,4.3 15.8,4 C15.8,3.7 15.7,3.4 15.4,3.2 L13.8,1.7 C13.3,1.2 12.6,1.2 12.2,1.7 L11.2,2.8 L11.2,1.2 C11.2,0.6 10.7,0 10.1,0 L7.9,0 C7.3,0 6.7,0.5 6.7,1.2 L6.7,3 C6.6,3.1 6.4,3.1 6.3,3.2 L5,1.9 C4.8,1.7 4.5,1.6 4.2,1.6 C3.9,1.6 3.6,1.7 3.4,1.9 L1.9,3.4 C1.7,3.6 1.6,3.9 1.6,4.2 C1.6,4.5 1.7,4.8 1.9,5 L3.2,6.4 C3.2,6.5 3.1,6.6 3.1,6.8 L1.2,6.8 C0.6,6.8 0,7.3 0,8 L0,10.2 C0,10.8 0.5,11.4 1.2,11.4 L3.3,11.4 L1.5,13.3 C1,13.8 1,14.5 1.5,14.9 L3.1,16.4 C3.3,16.6 3.6,16.7 3.9,16.7 C4.2,16.7 4.5,16.6 4.7,16.3 L6.4,14.6 L6.7,14.7 L6.7,16.9 C6.7,17.3 7,17.7 7.5,17.7 C7.9,17.7 8.3,17.4 8.3,16.9 L8.3,14 C8.3,13.7 8.1,13.4 7.8,13.3 C7.4,13.2 7.1,13 6.7,12.9 C6.4,12.7 6,12.8 5.8,13 L4,14.9 L2.9,13.9 L4.8,11.9 C5,11.7 5.1,11.3 5,11 C4.9,10.8 4.7,10.5 4.7,10.2 C4.6,9.9 4.3,9.7 4,9.7 L1.8,9.7 L1.8,8.2 L3.9,8.2 C4.2,8.2 4.5,8 4.6,7.6 C4.7,7.2 4.8,6.9 5,6.5 C5.2,6.2 5.1,5.8 4.9,5.6 L3.4,4.1 L4.4,3.1 L5.9,4.5 C6.1,4.7 6.5,4.8 6.8,4.6 C7.2,4.4 7.5,4.2 7.9,4.1 C8.2,4 8.5,3.7 8.5,3.4 L8.5,1.4 L10,1.4 L10,3.4 C10,3.7 10.2,4 10.6,4.1 C10.8,4.2 11.1,4.3 11.3,4.4 C11.6,4.5 11.9,4.5 12.2,4.2 L13.4,2.9 L14.5,3.9 L13.4,5.2 C13.2,5.5 13.1,5.8 13.3,6.1 C13.6,6.5 13.8,7 13.9,7.6 C14,7.9 14.3,8.2 14.6,8.2 L16.8,8.2 L16.8,10 C16.8,10.4 17.1,10.8 17.6,10.8 C18,10.8 18.4,10.5 18.4,10 L18.4,7.8 C17.9,7.2 17.4,6.7 16.8,6.7 Z M8.6,7.3 C9.5,7 10.5,7.5 10.8,8.4 C10.9,8.8 11.4,9 11.7,8.9 C12.1,8.8 12.3,8.3 12.2,8 C11.6,6.3 9.8,5.4 8.1,6 C6.4,6.6 5.5,8.4 6,10.1 C6.2,10.8 6.7,11.4 7.4,11.8 C7.5,11.9 7.7,11.9 7.8,11.9 C8.2,11.9 8.6,11.6 8.6,11.2 C8.6,10.9 8.5,10.7 8.2,10.6 C7.9,10.4 7.6,10.1 7.5,9.7 C7.3,9.3 7.4,8.8 7.6,8.4 C7.7,7.8 8.1,7.4 8.6,7.3 Z" id="Shape_58_"></path>
            </g>
            <g id="Layer_1-2_5_" transform="translate(35.000000, 380.000000)" fill="#666666" fill-rule="nonzero">
                <path d="M16.5,1.8 L16.5,5.6 C16.5,6 16.2,6.4 15.7,6.4 C15.2,6.4 14.9,6.1 14.9,5.6 L14.9,1.8 C14.9,1.7 14.8,1.6 14.7,1.6 L2.7,1.6 C2.6,1.6 2.5,1.7 2.5,1.8 L2.5,15.8 C2.5,15.9 2.6,16 2.7,16 L5.7,16 C6.1,16 6.5,16.3 6.5,16.8 C6.5,17.3 6.2,17.6 5.7,17.6 L2.7,17.6 C1.7,17.6 1,16.8 0.9,15.8 L0.9,1.8 C0.9,0.8 1.7,0.1 2.7,6.66133815e-16 L14.7,6.66133815e-16 C15.7,0 16.5,0.8 16.5,1.8 Z M9.2,16.9 L17.1,9.1 C17.5,8.7 17.4,8.1 17,7.7 C16.6,7.4 16.1,7.4 15.7,7.7 L7.8,15.5 C7.4,15.9 7.3,16.5 7.7,16.9 C8.1,17.3 8.7,17.4 9.1,17 C9.1,17 9.1,17 9.2,16.9 Z M17,17 C17.4,16.6 17.4,16 17,15.6 L9.2,7.7 C8.8,7.3 8.2,7.3 7.8,7.7 C7.4,8.1 7.4,8.7 7.8,9.1 L15.6,17 C15.8,17.2 16,17.3 16.3,17.3 C16.6,17.3 16.8,17.2 17,17 Z" id="Shape_59_"></path>
            </g>
            <g id="Layer_1-2_6_" transform="translate(251.000000, 382.000000)" fill="#666666" fill-rule="nonzero">
                <path d="M17.1,10.7 L17.1,0.8 L17.1,0.7 C17.1,0.6 17.1,0.6 17,0.6 L17,0.5 L17,0.4 L16.8,0.3 L16.7,0.2 L16.6,0.2 C16.5,0.2 16.5,0.2 16.4,0.2 L1.7,0.2 C1.7,0.2 1.6,0.1 1.5,0.1 L1.4,0.2 L1.3,0.3 L1.2,0.4 L1.1,0.5 L1,0.6 C1,0.6 1,0.7 0.9,0.7 L0.9,0.8 L0.9,10.6 C0.9,10.7 0.9,10.8 1,10.8 C1,10.8 1,10.8 1,10.9 C1,11 1.1,11 1.1,11.1 L1.2,11.2 L1.3,11.3 L1.4,11.3 C1.5,11.3 1.6,11.3 1.7,11.4 L16.3,11.4 C16.4,11.4 16.5,11.4 16.6,11.3 C16.7,11.3 16.7,11.2 16.8,11.2 L17,11.1 L17.1,11 C17.1,10.8 17.1,10.7 17.1,10.7 Z M2.5,2.3 L6.4,5.5 L2.5,8.9 L2.5,2.3 Z M3.9,1.5 L14.2,1.5 L9,5.7 L3.9,1.5 Z M15.6,2.3 L15.6,8.9 L11.7,5.5 L15.6,2.3 Z M7.6,6.4 L8.6,7.2 C8.7,7.3 8.9,7.4 9,7.4 C9.2,7.4 9.3,7.3 9.5,7.2 L10.5,6.4 L14.4,9.8 L3.8,9.8 L7.6,6.4 Z" id="Shape_60_"></path>
            </g>
            <g id="Layer_1-2_7_" transform="translate(287.000000, 381.000000)" fill="#666666" fill-rule="nonzero">
                <path d="M5.5,16.8 C5.5,17.2 5.2,17.5 4.7,17.6 L2.7,17.6 C1.7,17.6 1,16.8 0.9,15.8 L0.9,1.8 C0.9,0.8 1.7,0.1 2.7,6.66133815e-16 L14.7,6.66133815e-16 C15.7,6.66133815e-16 16.4,0.8 16.5,1.8 L16.5,5.6 C16.5,6 16.2,6.4 15.7,6.4 C15.2,6.4 14.9,6.1 14.9,5.6 L14.9,1.8 C14.9,1.7 14.8,1.6 14.7,1.6 L2.7,1.6 C2.6,1.6 2.5,1.7 2.5,1.8 L2.5,15.8 C2.5,15.9 2.6,16 2.7,16 L4.7,16 C5.2,16 5.5,16.3 5.5,16.8 Z M17.4,7.3 L11,7.3 C10.6,7.3 10.3,7.6 10.3,8.1 C10.3,8.5 10.6,8.8 11,8.8 L16.6,8.8 L16.6,12.8 L5.4,12.8 L5.4,8 C5.4,7.6 5.1,7.2 4.6,7.2 C4.1,7.2 3.8,7.5 3.8,8 L3.8,13.5 C3.8,13.9 4.1,14.2 4.6,14.3 L17.3,14.3 C17.7,14.3 18.1,14 18.1,13.5 L18.1,8 C18.2,7.7 17.8,7.3 17.4,7.3 Z M8.4,7.2 L9.8,7.2 C10.1,7.2 10.3,7 10.3,6.7 C10.3,6.4 10.1,6.2 9.8,6.2 L6.2,6.2 C5.9,6.2 5.7,6.4 5.7,6.7 C5.7,7 5.9,7.2 6.2,7.2 L7.4,7.2 C7.4,8.2 7.4,9.8 7.4,10.6 L6.2,10.6 C5.9,10.6 5.7,10.8 5.7,11.1 C5.7,11.4 5.9,11.6 6.2,11.6 L9.8,11.6 C10.1,11.6 10.3,11.4 10.3,11.1 C10.3,10.8 10.1,10.6 9.8,10.6 L8.4,10.6 C8.4,10.1 8.4,8.6 8.4,7.2 Z" id="Shape_61_"></path>
            </g>
            <g id="Layer_1-2_8_" transform="translate(323.000000, 381.000000)" fill="#666666" fill-rule="nonzero">
                <path d="M17.1,12 L17.1,16.6 C17.1,17 16.8,17.4 16.3,17.4 L1.7,17.4 C1.3,17.4 0.9,17.1 0.9,16.6 L0.9,11.5 C0.9,11.1 1.2,10.7 1.7,10.7 C2.2,10.7 2.5,11 2.5,11.5 L2.5,15.8 L15.6,15.8 L15.6,12 C15.6,11.6 15.9,11.2 16.4,11.2 C16.9,11.2 17.1,11.6 17.1,12 Z M4.1,6.4 C4,6.1 4,5.8 4.2,5.6 L8.4,1.2 C8.7,0.9 9.2,0.9 9.5,1.2 L13.7,5.6 C13.9,5.8 14,6.1 13.9,6.4 C13.8,6.7 13.5,6.9 13.2,6.9 L11.3,6.9 L11.3,13.6 C11.3,14 11,14.4 10.5,14.4 L7.3,14.4 C6.9,14.4 6.6,14.1 6.5,13.6 L6.5,6.9 L4.6,6.9 C4.5,6.9 4.2,6.7 4.1,6.4 Z M6.6,5.4 L7.4,5.4 C7.8,5.4 8.1,5.7 8.2,6.1 L8.2,12.8 L9.9,12.8 L9.9,6 C9.9,5.6 10.2,5.2 10.7,5.2 L11.6,5.2 L9.1,2.6 L6.6,5.4 Z" id="Shape_62_"></path>
            </g>
            <g id="Layer_1-2_9_" transform="translate(363.000000, 379.000000)" fill="#666666" fill-rule="nonzero">
                <path d="M17.1,12 L17.1,16.6 C17.1,17 16.8,17.4 16.3,17.4 L1.7,17.4 C1.3,17.4 0.9,17.1 0.9,16.6 L0.9,11.5 C0.9,11.1 1.2,10.7 1.7,10.7 C2.2,10.7 2.5,11 2.5,11.5 L2.5,15.9 L15.6,15.9 L15.6,12 C15.6,11.6 15.9,11.2 16.4,11.2 C16.9,11.2 17.1,11.6 17.1,12 Z M4.2,9.8 C4,9.6 4,9.3 4.1,9 C4.2,8.7 4.5,8.5 4.8,8.5 L6.7,8.5 L6.7,1.7 C6.7,1.3 7,1 7.5,0.9 L10.7,0.9 C11.1,0.9 11.5,1.2 11.5,1.7 L11.5,8.4 L13.4,8.4 C13.7,8.4 14,8.6 14.1,8.9 C14.2,9.2 14.2,9.5 14,9.7 L9.7,14.1 C9.6,14.3 9.3,14.3 9.1,14.3 C8.9,14.3 8.7,14.2 8.6,14.1 L4.2,9.8 Z M6.6,10 L9,12.6 L11.5,10 L10.6,10 C10.2,10 9.9,9.7 9.9,9.3 L9.9,2.5 L8.2,2.5 L8.2,9.2 C8.2,9.6 7.9,9.9 7.5,10 L6.6,10 Z" id="Shape_63_"></path>
            </g>
            <path d="M123.4,73.3 L110.4,73.3 C110,73.3 109.8,73.1 109.8,72.7 C109.8,72.3 110,72.1 110.4,72.1 L123.4,72.1 C124.1,72.1 124.6,71.5 124.6,70.9 L124.6,59.5 C124.6,58.8 124,58.3 123.4,58.3 L115.2,58.3 C114.7,58.3 114.1,58.1 113.7,57.7 L111.7,56.4 C111.6,56.3 111.2,56.2 111,56.2 L106.5,56.2 C105.8,56.2 105.3,56.8 105.3,57.4 L105.3,70.7 C105.3,71.4 105.9,71.9 106.5,71.9 L107.7,71.9 C108.1,71.9 108.3,72.1 108.3,72.5 C108.3,72.9 108.1,73.1 107.7,73.1 L106.5,73.1 C105,73.1 103.9,72 103.9,70.5 L103.9,57.3 C103.9,55.8 105,54.7 106.5,54.7 L111,54.7 C111.5,54.7 112.1,54.8 112.6,55.2 L114.4,56.7 C114.6,56.8 114.9,56.9 115.1,56.9 L123.3,56.9 C124.8,56.9 125.9,58 125.9,59.5 L125.9,70.7 C126,72.1 124.9,73.3 123.4,73.3 Z M110.5,73.3 C110.1,73.3 109.9,73.1 109.9,72.7 L109.9,71.2 C109.9,70.5 110.1,69.9 110.5,69.4 C110.9,68.8 111.5,68.4 112.1,68.2 L114.4,67.3 C114.8,67.2 115.1,67.3 115.3,67.7 C115.4,68.1 115.3,68.4 114.9,68.6 L112.6,69.5 C111.9,69.7 111.3,70.5 111.3,71.3 L111.3,72.6 C111.1,72.9 110.8,73.3 110.5,73.3 Z M114,68.5 C112.9,68.5 112,67.6 112,66.5 C112,65.4 112.9,64.5 114,64.5 C115.1,64.5 116,65.4 116,66.5 C116,67.6 115,68.5 114,68.5 Z M114,66 C113.6,66 113.4,66.2 113.4,66.6 C113.4,67 113.6,67.2 114,67.2 C114.4,67.2 114.6,67 114.6,66.6 C114.6,66.2 114.4,66 114,66 Z M114.9,73.3 C114.5,73.3 114.3,73.1 114.3,72.7 L114.3,69.6 C114.3,68.9 114.5,68.3 114.9,67.8 C115.3,67.2 115.9,66.8 116.5,66.6 L118.6,65.9 C119,65.8 119.3,65.9 119.5,66.3 C119.6,66.7 119.5,67 119.1,67.2 L116.9,67.8 C116.2,68 115.6,68.8 115.6,69.6 L115.6,72.7 C115.5,72.9 115.2,73.3 114.9,73.3 Z M118.2,67.1 C117.1,67.1 116.1,66.2 116.1,65 C116.1,63.8 117,62.9 118.2,62.9 C119.4,62.9 120.3,63.8 120.3,65 C120.3,66.2 119.3,67.1 118.2,67.1 Z M118.2,64.2 C117.8,64.2 117.5,64.6 117.5,64.9 C117.5,65.3 117.9,65.6 118.2,65.6 C118.6,65.6 118.9,65.2 118.9,64.9 C118.9,64.6 118.7,64.2 118.2,64.2 Z M119.3,73.3 C118.9,73.3 118.7,73.1 118.7,72.7 L118.7,67.8 C118.7,67.2 118.9,66.6 119.2,66.1 C119.6,65.6 120.1,65.2 120.7,65 L122.9,64.1 C123.3,64 123.6,64.1 123.8,64.5 C124,64.9 123.8,65.2 123.4,65.4 L121.2,66.1 C120.5,66.3 120.1,67.1 120.1,67.8 L120.1,72.7 C119.9,72.9 119.6,73.3 119.3,73.3 Z M122.6,65.3 C121.4,65.3 120.5,64.3 120.5,63.2 C120.5,62 121.5,61.1 122.6,61.1 C123.8,61.1 124.7,62.1 124.7,63.2 C124.7,64.5 123.8,65.3 122.6,65.3 Z M122.6,62.4 C122.1,62.4 121.7,62.8 121.7,63.3 C121.7,63.8 122.1,64.2 122.6,64.2 C123.1,64.2 123.5,63.8 123.5,63.3 C123.5,62.8 123.1,62.4 122.6,62.4 Z" id="Shape" fill="#246EB3" fill-rule="nonzero"></path>
        </g>
    </g>
</svg>